<svg width="367" height="241" viewBox="0 0 367 241" fill="none" xmlns="http://www.w3.org/2000/svg">
<path d="M55 74C72.1208 74 86 60.1208 86 43C86 25.8792 72.1208 12 55 12C37.8792 12 24 25.8792 24 43C24 60.1208 37.8792 74 55 74Z" fill="#293891" stroke="#4256CD" stroke-width="11"/>
<path d="M300 74C317.673 74 332 59.897 332 42.5C332 25.103 317.673 11 300 11C282.327 11 268 25.103 268 42.5C268 59.897 282.327 74 300 74Z" fill="#18A08E"/>
<path d="M300 223C317.673 223 332 208.897 332 191.5C332 174.103 317.673 160 300 160C282.327 160 268 174.103 268 191.5C268 208.897 282.327 223 300 223Z" fill="#18A08E"/>
<path d="M261.568 45.176L232.568 25.176C232.261 24.965 231.863 24.943 231.535 25.114C231.206 25.287 231 25.627 231 25.999V65.999C231 66.371 231.206 66.712 231.535 66.885C231.681 66.961 231.841 66.999 232 66.999C232.199 66.999 232.397 66.939 232.568 66.822L261.568 46.822C261.839 46.635 262 46.328 262 45.999C262 45.67 261.838 45.363 261.568 45.176Z" fill="#18A08E"/>
<path d="M261.568 194.176L232.568 174.176C232.261 173.965 231.863 173.943 231.535 174.114C231.206 174.287 231 174.627 231 174.999V214.999C231 215.371 231.206 215.712 231.535 215.885C231.681 215.961 231.841 215.999 232 215.999C232.199 215.999 232.397 215.939 232.568 215.822L261.568 195.822C261.839 195.635 262 195.328 262 194.999C262 194.67 261.838 194.363 261.568 194.176Z" fill="#18A08E"/>
<path d="M91 46H231" stroke="#18A08E" stroke-width="6"/>
<path d="M95 46H128C149.539 46 167 63.4609 167 85V156C167 177.539 184.461 195 206 195H231" stroke="#18A08E" stroke-width="6"/>
</svg>
