<svg width="29" height="29" viewBox="0 0 29 29" fill="none" xmlns="http://www.w3.org/2000/svg">
<path d="M26.2812 12.2344C26.1653 12.2344 26.0538 12.2516 25.9423 12.2688L24.3197 7.86444C24.3564 7.83227 24.3976 7.80644 24.4325 7.77155C25.3156 6.88795 25.3156 5.45064 24.4325 4.5675C24.0047 4.13975 23.4361 3.90412 22.8307 3.90412C22.2253 3.90412 21.6567 4.13975 21.2289 4.5675C21.1936 4.60284 21.1686 4.64408 21.1365 4.68078L16.7316 3.05814C16.7484 2.94622 16.7656 2.83475 16.7656 2.71875C16.7656 1.46948 15.7493 0.453125 14.5 0.453125C13.2507 0.453125 12.2344 1.46948 12.2344 2.71875C12.2344 2.83475 12.2516 2.94622 12.2688 3.05769L7.86398 4.68078C7.83136 4.64362 7.80644 4.60284 7.77155 4.5675C7.3438 4.13975 6.77513 3.90412 6.16975 3.90412C5.56437 3.90412 4.9957 4.13975 4.56795 4.5675C3.68481 5.45109 3.68481 6.88841 4.56795 7.77155C4.60284 7.80644 4.64408 7.83227 4.68078 7.86444L3.05814 12.2688C2.94622 12.2516 2.83475 12.2344 2.71875 12.2344C1.46948 12.2344 0.453125 13.2507 0.453125 14.5C0.453125 15.7493 1.46948 16.7656 2.71875 16.7656C2.83475 16.7656 2.94622 16.7484 3.05769 16.7312L4.68033 21.1356C4.64363 21.1677 4.60239 21.1936 4.5675 21.2285C3.68436 22.112 3.68436 23.5494 4.5675 24.4325C4.99525 24.8602 5.56392 25.0959 6.1693 25.0959C6.77467 25.0959 7.34334 24.8602 7.77109 24.4325C7.80644 24.3972 7.83136 24.3559 7.86353 24.3192L12.2684 25.9423C12.2516 26.0538 12.2344 26.1653 12.2344 26.2812C12.2344 27.5305 13.2507 28.5469 14.5 28.5469C15.7493 28.5469 16.7656 27.5305 16.7656 26.2812C16.7656 26.1653 16.7484 26.0538 16.7312 25.9423L21.136 24.3192C21.1686 24.3564 21.1936 24.3976 21.2285 24.4325C21.6562 24.8602 22.2249 25.0959 22.8302 25.0959C23.4356 25.0959 24.0043 24.8602 24.432 24.4325C25.3152 23.5489 25.3152 22.1116 24.432 21.2285C24.3972 21.1936 24.3559 21.1677 24.3192 21.1356L25.9419 16.7312C26.0538 16.7484 26.1653 16.7656 26.2812 16.7656C27.5305 16.7656 28.5469 15.7493 28.5469 14.5C28.5469 13.2507 27.5305 12.2344 26.2812 12.2344ZM23.5204 20.6824C23.2992 20.6117 23.0695 20.5651 22.8302 20.5651C22.3789 20.5651 21.9485 20.6965 21.581 20.9407L18.9696 18.3298C18.7725 18.5595 18.5586 18.7734 18.3289 18.9705L20.9403 21.5814C20.5574 22.161 20.4776 22.8765 20.6829 23.5199L16.4185 25.0909C16.095 24.5707 15.5721 24.1874 14.9522 24.0609V20.3671C14.8031 20.3793 14.6532 20.3906 14.5 20.3906C14.3468 20.3906 14.1969 20.3793 14.0469 20.3675V24.0614C13.4275 24.1878 12.9045 24.5712 12.5806 25.0913L8.3162 23.5204C8.52147 22.8765 8.44217 22.161 8.05883 21.5814L10.6697 18.9705C10.44 18.7734 10.2261 18.5595 10.029 18.3298L7.41811 20.9407C7.05063 20.6969 6.62016 20.5651 6.16884 20.5651C5.93005 20.5651 5.69986 20.6117 5.47873 20.6824L3.9082 16.4194C4.42839 16.0959 4.81173 15.573 4.93816 14.9531H8.63203C8.6207 14.8031 8.60938 14.6532 8.60938 14.5C8.60938 14.3468 8.6207 14.1969 8.63248 14.0469H4.93861C4.81219 13.4275 4.42884 12.9045 3.90866 12.5806L5.47919 8.31756C5.70031 8.38825 5.93005 8.43492 6.16884 8.43492C6.62016 8.43492 7.05063 8.30352 7.41811 8.05928L10.029 10.6702C10.2261 10.4405 10.44 10.2266 10.6697 10.0295L8.05883 7.41856C8.44217 6.83902 8.52147 6.12353 8.3162 5.47964L12.5806 3.90866C12.9041 4.42884 13.427 4.81219 14.0469 4.93861V8.63248C14.1969 8.6207 14.3468 8.60938 14.5 8.60938C14.6532 8.60938 14.8031 8.6207 14.9531 8.63248V4.93861C15.5725 4.81219 16.0955 4.42884 16.4194 3.90866L20.6838 5.47964C20.4785 6.12353 20.5578 6.83902 20.9412 7.41856L18.3303 10.0295C18.56 10.2266 18.7739 10.4405 18.971 10.6702L21.5819 8.05928C21.9494 8.30306 22.3798 8.43492 22.8312 8.43492C23.0704 8.43492 23.3001 8.38825 23.5213 8.31711L25.0918 12.5806C24.5716 12.9041 24.1883 13.427 24.0618 14.0469H20.368C20.3793 14.1969 20.3906 14.3468 20.3906 14.5C20.3906 14.6532 20.3793 14.8031 20.3675 14.9531H24.0614C24.1878 15.5725 24.5712 16.0955 25.0913 16.4194L23.5204 20.6824Z" fill="#18A08E"/>
<circle cx="14.4717" cy="14.6416" r="4.67285" fill="white" stroke="#18A08E" stroke-width="2"/>
</svg>
