<svg width="19" height="19" viewBox="0 0 19 19" fill="none" xmlns="http://www.w3.org/2000/svg">
<g clip-path="url(#clip0)">
<path opacity="0.9" d="M10.1396 1.37109C7.04538 1.37109 4.30478 3.02593 2.89028 5.55174L0.856934 3.54851V9.2098H6.60335L4.12797 6.77109C5.27725 4.59367 7.48741 3.11303 10.1396 3.11303C13.7643 3.11303 16.7701 6.07432 16.7701 9.64529C16.7701 13.2163 13.7643 16.1775 10.1396 16.1775C7.22219 16.1775 4.83522 14.3485 3.86275 11.8227H2.00622C2.97869 15.3066 6.24972 17.9195 10.1396 17.9195C14.8251 17.9195 18.5382 14.1743 18.5382 9.64529C18.5382 5.11625 14.7367 1.37109 10.1396 1.37109ZM8.81351 5.72593V10.1679L12.9686 12.6066L13.6759 11.4743L10.1396 9.384V5.72593H8.81351Z" fill="#7C7C7C"/>
</g>
<defs>
<clipPath id="clip0">
<rect width="17.6813" height="17.4194" fill="white" transform="translate(0.856934 0.935547)"/>
</clipPath>
</defs>
</svg>
