<svg width="25" height="25" viewBox="0 0 25 25" fill="none" xmlns="http://www.w3.org/2000/svg">
<path d="M11.083 8.15819C11.1287 8.2496 11.1744 8.341 11.2201 8.40956C11.2658 8.47812 11.3344 8.54667 11.3801 8.61523C11.4486 8.68378 11.5172 8.75234 11.6086 8.82089C11.6772 8.8666 11.7686 8.93515 11.8828 8.95801C11.9742 9.00371 12.0656 9.02656 12.1799 9.04941C12.2942 9.07227 12.3856 9.07227 12.477 9.07227C12.5684 9.07227 12.6826 9.07227 12.7741 9.04941C12.8655 9.02656 12.9569 9.00371 13.0254 8.95801H13.0483C13.1397 8.9123 13.2311 8.8666 13.3225 8.79804C13.3911 8.75234 13.4596 8.68378 13.5282 8.61523L13.551 8.59238C13.6196 8.52382 13.6653 8.45526 13.711 8.38671C13.7567 8.31815 13.8024 8.2496 13.8252 8.15819C13.8252 8.13534 13.8252 8.13534 13.8481 8.11248C13.8938 8.02108 13.9166 7.90682 13.9395 7.81541C13.9624 7.724 13.9624 7.60974 13.9624 7.51833C13.9624 7.42693 13.9624 7.31267 13.9395 7.22126C13.9166 7.12985 13.8938 7.03844 13.8481 6.92418C13.7795 6.76422 13.6881 6.62711 13.5739 6.51285C13.551 6.49 13.551 6.49 13.5282 6.46715C13.4596 6.39859 13.3911 6.35289 13.2996 6.28433C13.2082 6.23863 13.1397 6.19292 13.0483 6.14722C12.9569 6.10151 12.8655 6.07866 12.7741 6.05581C12.6598 6.03296 12.5684 6.03296 12.477 6.03296C12.3856 6.03296 12.2713 6.03296 12.1799 6.05581C12.0885 6.07866 11.9971 6.10151 11.9057 6.14722H11.8828C11.7914 6.19292 11.7 6.23863 11.6315 6.28433C11.54 6.35289 11.4715 6.39859 11.4029 6.46715C11.3344 6.5357 11.2658 6.60426 11.2201 6.67281C11.1744 6.74137 11.1287 6.83278 11.083 6.92418C11.0373 7.01559 11.0145 7.107 10.9916 7.19841C10.9687 7.31267 10.9688 7.40407 10.9688 7.49548C10.9688 7.58689 10.9687 7.70115 10.9916 7.79256C11.0145 7.97537 11.0602 8.06678 11.083 8.15819Z" fill="#4A4A4A"/>
<path d="M14.2598 16.522H13.7342V10.9233C13.7342 10.6033 13.4829 10.3291 13.1401 10.3291H10.7406C10.4207 10.3291 10.1465 10.5805 10.1465 10.9233V12.1573C10.1465 12.4772 10.3979 12.7514 10.7406 12.7514H11.2205V16.5448H10.7406C10.4207 16.5448 10.1465 16.7962 10.1465 17.139V18.373C10.1465 18.6929 10.3979 18.9671 10.7406 18.9671H14.2598C14.5798 18.9671 14.854 18.7158 14.854 18.373V17.139C14.854 16.7962 14.5798 16.522 14.2598 16.522Z" fill="#4A4A4A"/>
<path d="M12.5 0C5.59872 0 0 5.59872 0 12.5C0 19.4013 5.59872 25 12.5 25C19.4013 25 25 19.4013 25 12.5C25 5.59872 19.4013 0 12.5 0ZM12.5 23.3547C6.5128 23.3547 1.64534 18.4872 1.64534 12.5C1.64534 6.5128 6.5128 1.64534 12.5 1.64534C18.4872 1.64534 23.3547 6.5128 23.3547 12.5C23.3547 18.4872 18.4872 23.3547 12.5 23.3547Z" fill="#4A4A4A"/>
</svg>
