<svg width="1440" height="900" viewBox="0 0 1440 900" fill="none" xmlns="http://www.w3.org/2000/svg">
<rect width="1440" height="900" fill="white"/>
<g filter="url(#filter0_i)">
<path d="M1107 551.329C1107 746.557 776.48 789.644 622.5 789.644C427.197 789.644 333 576.834 333 381.605C333 186.376 618.373 114.144 813.676 114.144C1008.98 114.144 1107 356.1 1107 551.329Z" fill="#97F9EC"/>
</g>
<g filter="url(#filter1_i)">
<path d="M1001.5 494.644C1001.5 659.743 888.607 697.144 758.5 697.144C593.476 697.144 419 594.743 419 429.644C419 264.545 621.129 166.144 786.153 166.144C951.177 166.144 1001.5 329.545 1001.5 494.644Z" fill="#79EEDE"/>
</g>
<g filter="url(#filter2_i)">
<path d="M921.17 330.242C1007.74 431.311 982.721 539.358 903 607.644C801.884 694.256 650.072 708.713 563.5 607.644C476.928 506.576 482.385 324.256 583.5 237.644C684.615 151.032 834.598 229.173 921.17 330.242Z" fill="#2EB5A3"/>
</g>
<g filter="url(#filter3_i)">
<path d="M899 328.644C965.982 406.843 933.25 530.347 871.569 583.182C793.334 650.195 672.482 697.343 605.5 619.144C538.518 540.945 546.13 363.919 624.365 296.905C702.6 229.892 832.018 250.445 899 328.644Z" fill="#18A08E"/>
</g>
<g filter="url(#filter4_i)">
<path d="M865.189 363.366C917.481 424.414 891.928 520.832 843.774 562.079C782.697 614.395 688.35 651.203 636.058 590.155C583.766 529.106 589.709 390.904 650.786 338.588C711.863 286.271 812.897 302.317 865.189 363.366Z" fill="#178D7E"/>
</g>
<g filter="url(#filter5_i)">
<path d="M1233.99 341.897C1256.12 367.742 1267.39 420.447 1247 437.91C1221.14 460.058 1159.12 463.755 1136.98 437.91C1114.84 412.064 1117.36 353.555 1143.22 331.407C1169.07 309.258 1211.85 316.051 1233.99 341.897Z" fill="white"/>
</g>
<g filter="url(#filter6_d)">
<path d="M557.029 496.396V469.15H483.494C474.217 469.15 467.234 467.051 462.547 462.852C457.957 458.652 455.662 452.939 455.662 445.713C455.662 443.857 456.004 442.002 456.688 440.146C457.371 438.193 458.396 436.191 459.764 434.141C461.131 431.992 462.547 429.941 464.012 427.988C465.477 426.035 467.283 423.643 469.432 420.811L547.068 316.953C552.146 310.117 556.297 305.186 559.52 302.158C562.84 299.033 566.795 297.471 571.385 297.471C586.229 297.471 593.65 305.967 593.65 322.959V436.338H599.949C607.469 436.338 613.475 437.363 617.967 439.414C622.557 441.465 624.852 445.957 624.852 452.891C624.852 458.555 622.996 462.705 619.285 465.342C615.574 467.881 610.008 469.15 602.586 469.15H593.65V496.396C593.65 503.916 591.99 509.531 588.67 513.242C585.35 516.855 580.906 518.662 575.34 518.662C569.871 518.662 565.428 516.807 562.01 513.096C558.689 509.287 557.029 503.721 557.029 496.396ZM494.041 436.338H557.029V351.23L494.041 436.338ZM794.48 409.678C794.48 425.693 793.504 439.463 791.551 450.986C789.598 462.51 785.984 472.959 780.711 482.334C774.07 493.857 765.477 502.744 754.93 508.994C744.383 515.244 732.664 518.369 719.773 518.369C704.93 518.369 691.6 514.17 679.783 505.771C668.064 497.373 659.227 485.752 653.27 470.908C650.242 462.803 647.996 453.867 646.531 444.102C645.164 434.238 644.48 423.594 644.48 412.168C644.48 397.422 645.262 384.141 646.824 372.324C648.387 360.508 650.828 350.352 654.148 341.855C659.91 327.793 668.26 317.1 679.197 309.775C690.232 302.354 703.367 298.643 718.602 298.643C728.66 298.643 737.791 300.303 745.994 303.623C754.197 306.846 761.375 311.631 767.527 317.979C773.777 324.229 779.051 331.992 783.348 341.27C790.77 357.383 794.48 380.186 794.48 409.678ZM754.344 406.748C754.344 388.877 753.27 374.277 751.121 362.949C748.973 351.523 745.359 342.93 740.281 337.168C735.203 331.309 728.172 328.379 719.188 328.379C706.297 328.379 697.312 334.873 692.234 347.861C687.254 360.85 684.764 380.869 684.764 407.92C684.764 426.279 685.838 441.318 687.986 453.037C690.135 464.756 693.748 473.643 698.826 479.697C703.904 485.654 710.789 488.633 719.48 488.633C728.465 488.633 735.496 485.508 740.574 479.258C745.652 473.008 749.217 464.072 751.268 452.451C753.318 440.83 754.344 425.596 754.344 406.748ZM913.865 496.396V469.15H840.33C831.053 469.15 824.07 467.051 819.383 462.852C814.793 458.652 812.498 452.939 812.498 445.713C812.498 443.857 812.84 442.002 813.523 440.146C814.207 438.193 815.232 436.191 816.6 434.141C817.967 431.992 819.383 429.941 820.848 427.988C822.312 426.035 824.119 423.643 826.268 420.811L903.904 316.953C908.982 310.117 913.133 305.186 916.355 302.158C919.676 299.033 923.631 297.471 928.221 297.471C943.064 297.471 950.486 305.967 950.486 322.959V436.338H956.785C964.305 436.338 970.311 437.363 974.803 439.414C979.393 441.465 981.688 445.957 981.688 452.891C981.688 458.555 979.832 462.705 976.121 465.342C972.41 467.881 966.844 469.15 959.422 469.15H950.486V496.396C950.486 503.916 948.826 509.531 945.506 513.242C942.186 516.855 937.742 518.662 932.176 518.662C926.707 518.662 922.264 516.807 918.846 513.096C915.525 509.287 913.865 503.721 913.865 496.396ZM850.877 436.338H913.865V351.23L850.877 436.338Z" fill="white"/>
</g>
<g filter="url(#filter7_i)">
<path d="M411 141.294C411 189.635 349.95 262 305.118 262C260.285 262 195 234.812 195 186.471C195 138.129 245.34 70 290.172 70C335.005 70 411 92.953 411 141.294Z" fill="white"/>
</g>
<g filter="url(#filter8_i)">
<circle cx="1125" cy="773" r="96" fill="white"/>
</g>
<g filter="url(#filter9_i)">
<circle cx="378.5" cy="749.5" r="40.5" fill="white"/>
</g>
<g opacity="0.5" filter="url(#filter10_i)">
<ellipse cx="1126.5" cy="747" rx="60.5" ry="53" fill="white"/>
</g>
<g filter="url(#filter11_i)">
<circle cx="105.5" cy="537.5" r="40.5" fill="white"/>
</g>
<g filter="url(#filter12_i)">
<path d="M360 163.5C371 212 322.368 231 300 231C277.632 231 255.235 220 241 192.5C219 150 241 104 300 104C322.368 104 360 141.132 360 163.5Z" fill="white"/>
</g>
<g filter="url(#filter13_i)">
<circle cx="762" cy="57" r="28" fill="white"/>
</g>
<g filter="url(#filter14_d)">
<path d="M410.596 605.119H397.314V625.383C397.314 628.28 396.631 630.477 395.264 631.975C393.896 633.472 392.171 634.221 390.088 634.221C387.907 634.221 386.149 633.488 384.814 632.023C383.48 630.526 382.812 628.345 382.812 625.48V570.305C382.812 567.115 383.545 564.836 385.01 563.469C386.475 562.102 388.802 561.418 391.992 561.418H410.596C416.097 561.418 420.329 561.841 423.291 562.688C426.221 563.501 428.743 564.852 430.859 566.74C433.008 568.628 434.635 570.939 435.742 573.674C436.849 576.408 437.402 579.484 437.402 582.902C437.402 590.194 435.156 595.728 430.664 599.504C426.172 603.247 419.482 605.119 410.596 605.119ZM407.08 572.307H397.314V594.182H407.08C410.498 594.182 413.346 593.824 415.625 593.107C417.936 592.391 419.694 591.219 420.898 589.592C422.103 587.964 422.705 585.832 422.705 583.195C422.705 580.038 421.777 577.466 419.922 575.48C417.839 573.365 413.558 572.307 407.08 572.307ZM478.467 626.701C475.244 629.208 472.119 631.096 469.092 632.365C466.097 633.602 462.728 634.221 458.984 634.221C455.566 634.221 452.555 633.553 449.951 632.219C447.38 630.852 445.394 629.012 443.994 626.701C442.594 624.39 441.895 621.883 441.895 619.182C441.895 615.536 443.05 612.427 445.361 609.855C447.673 607.284 450.846 605.559 454.883 604.68C455.729 604.484 457.829 604.045 461.182 603.361C464.535 602.678 467.399 602.059 469.775 601.506C472.184 600.92 474.788 600.22 477.588 599.406C477.425 595.891 476.709 593.319 475.439 591.691C474.202 590.031 471.615 589.201 467.676 589.201C464.29 589.201 461.735 589.673 460.01 590.617C458.317 591.561 456.852 592.977 455.615 594.865C454.411 596.753 453.548 598.007 453.027 598.625C452.539 599.211 451.465 599.504 449.805 599.504C448.307 599.504 447.005 599.032 445.898 598.088C444.824 597.111 444.287 595.874 444.287 594.377C444.287 592.033 445.117 589.755 446.777 587.541C448.438 585.327 451.025 583.505 454.541 582.072C458.057 580.64 462.435 579.924 467.676 579.924C473.535 579.924 478.141 580.624 481.494 582.023C484.847 583.391 487.207 585.572 488.574 588.566C489.974 591.561 490.674 595.533 490.674 600.48C490.674 603.605 490.658 606.258 490.625 608.439C490.625 610.62 490.609 613.046 490.576 615.715C490.576 618.221 490.983 620.842 491.797 623.576C492.643 626.278 493.066 628.02 493.066 628.801C493.066 630.168 492.415 631.421 491.113 632.561C489.844 633.667 488.395 634.221 486.768 634.221C485.4 634.221 484.049 633.586 482.715 632.316C481.38 631.014 479.964 629.143 478.467 626.701ZM477.588 607.414C475.635 608.13 472.786 608.895 469.043 609.709C465.332 610.49 462.76 611.076 461.328 611.467C459.896 611.825 458.529 612.557 457.227 613.664C455.924 614.738 455.273 616.252 455.273 618.205C455.273 620.223 456.038 621.949 457.568 623.381C459.098 624.781 461.1 625.48 463.574 625.48C466.211 625.48 468.636 624.911 470.85 623.771C473.096 622.6 474.74 621.102 475.781 619.279C476.986 617.261 477.588 613.941 477.588 609.318V607.414ZM551.904 589.787V628.508C551.904 632.935 551.432 636.743 550.488 639.934C549.544 643.124 548.031 645.76 545.947 647.844C543.864 649.927 541.13 651.473 537.744 652.482C534.391 653.492 530.208 653.996 525.195 653.996C520.605 653.996 516.504 653.345 512.891 652.043C509.277 650.773 506.494 649.113 504.541 647.062C502.588 645.044 501.611 642.961 501.611 640.812C501.611 639.185 502.165 637.85 503.271 636.809C504.378 635.799 505.713 635.295 507.275 635.295C509.229 635.295 510.938 636.158 512.402 637.883C513.118 638.762 513.851 639.641 514.6 640.52C515.381 641.431 516.227 642.196 517.139 642.814C518.083 643.465 519.206 643.938 520.508 644.23C521.81 644.556 523.307 644.719 525 644.719C528.451 644.719 531.12 644.23 533.008 643.254C534.928 642.31 536.263 640.975 537.012 639.25C537.793 637.525 538.249 635.669 538.379 633.684C538.509 631.73 538.607 628.573 538.672 624.211C536.621 627.076 534.245 629.257 531.543 630.754C528.874 632.251 525.684 633 521.973 633C517.513 633 513.607 631.861 510.254 629.582C506.934 627.303 504.378 624.113 502.588 620.012C500.798 615.91 499.902 611.174 499.902 605.803C499.902 601.799 500.439 598.186 501.514 594.963C502.62 591.74 504.183 589.022 506.201 586.809C508.219 584.595 510.547 582.935 513.184 581.828C515.82 580.689 518.717 580.119 521.875 580.119C525.651 580.119 528.923 580.852 531.689 582.316C534.456 583.749 537.028 586.011 539.404 589.104V587.297C539.404 584.986 539.974 583.195 541.113 581.926C542.253 580.656 543.717 580.021 545.508 580.021C548.079 580.021 549.788 580.868 550.635 582.561C551.481 584.221 551.904 586.63 551.904 589.787ZM513.281 606.682C513.281 612.085 514.453 616.171 516.797 618.938C519.173 621.704 522.233 623.088 525.977 623.088C528.19 623.088 530.273 622.502 532.227 621.33C534.212 620.126 535.824 618.335 537.061 615.959C538.298 613.55 538.916 610.637 538.916 607.219C538.916 601.783 537.712 597.551 535.303 594.523C532.926 591.496 529.785 589.982 525.879 589.982C522.07 589.982 519.01 591.431 516.699 594.328C514.421 597.225 513.281 601.343 513.281 606.682ZM600.049 610.393H573.975C574.007 613.42 574.609 616.089 575.781 618.4C576.986 620.712 578.564 622.453 580.518 623.625C582.503 624.797 584.684 625.383 587.061 625.383C588.656 625.383 590.104 625.204 591.406 624.846C592.741 624.455 594.027 623.869 595.264 623.088C596.501 622.274 597.64 621.411 598.682 620.5C599.723 619.589 601.074 618.352 602.734 616.789C603.418 616.203 604.395 615.91 605.664 615.91C607.031 615.91 608.138 616.285 608.984 617.033C609.831 617.782 610.254 618.84 610.254 620.207C610.254 621.411 609.782 622.827 608.838 624.455C607.894 626.05 606.462 627.596 604.541 629.094C602.653 630.559 600.26 631.779 597.363 632.756C594.499 633.732 591.195 634.221 587.451 634.221C578.89 634.221 572.233 631.779 567.48 626.896C562.728 622.014 560.352 615.389 560.352 607.023C560.352 603.085 560.938 599.439 562.109 596.086C563.281 592.701 564.99 589.803 567.236 587.395C569.482 584.986 572.249 583.146 575.537 581.877C578.825 580.575 582.471 579.924 586.475 579.924C591.683 579.924 596.143 581.031 599.854 583.244C603.597 585.425 606.396 588.257 608.252 591.74C610.107 595.223 611.035 598.771 611.035 602.385C611.035 605.738 610.075 607.919 608.154 608.928C606.234 609.904 603.532 610.393 600.049 610.393ZM573.975 602.824H598.145C597.819 598.267 596.582 594.865 594.434 592.619C592.318 590.34 589.518 589.201 586.035 589.201C582.715 589.201 579.98 590.357 577.832 592.668C575.716 594.947 574.43 598.332 573.975 602.824ZM659.424 587.395V589.006C661.768 585.913 664.323 583.651 667.09 582.219C669.889 580.754 673.096 580.021 676.709 580.021C680.225 580.021 683.366 580.786 686.133 582.316C688.9 583.846 690.967 586.011 692.334 588.811C693.213 590.438 693.783 592.196 694.043 594.084C694.303 595.972 694.434 598.381 694.434 601.311V626.115C694.434 628.785 693.815 630.803 692.578 632.17C691.374 633.537 689.795 634.221 687.842 634.221C685.856 634.221 684.245 633.521 683.008 632.121C681.771 630.721 681.152 628.719 681.152 626.115V603.898C681.152 599.504 680.534 596.151 679.297 593.84C678.092 591.496 675.667 590.324 672.021 590.324C669.645 590.324 667.48 591.04 665.527 592.473C663.574 593.872 662.142 595.809 661.23 598.283C660.579 600.269 660.254 603.98 660.254 609.416V626.115C660.254 628.817 659.619 630.852 658.35 632.219C657.113 633.553 655.501 634.221 653.516 634.221C651.595 634.221 650.016 633.521 648.779 632.121C647.542 630.721 646.924 628.719 646.924 626.115V587.59C646.924 585.051 647.477 583.163 648.584 581.926C649.691 580.656 651.204 580.021 653.125 580.021C654.297 580.021 655.355 580.298 656.299 580.852C657.243 581.405 657.992 582.235 658.545 583.342C659.131 584.449 659.424 585.799 659.424 587.395ZM757.666 607.121C757.666 611.092 757.048 614.755 755.811 618.107C754.574 621.46 752.783 624.341 750.439 626.75C748.096 629.159 745.296 631.014 742.041 632.316C738.786 633.586 735.124 634.221 731.055 634.221C727.018 634.221 723.389 633.57 720.166 632.268C716.943 630.965 714.144 629.11 711.768 626.701C709.424 624.26 707.633 621.395 706.396 618.107C705.192 614.787 704.59 611.125 704.59 607.121C704.59 603.085 705.208 599.39 706.445 596.037C707.682 592.684 709.456 589.82 711.768 587.443C714.079 585.067 716.878 583.244 720.166 581.975C723.454 580.673 727.083 580.021 731.055 580.021C735.091 580.021 738.753 580.673 742.041 581.975C745.329 583.277 748.145 585.132 750.488 587.541C752.832 589.95 754.606 592.814 755.811 596.135C757.048 599.455 757.666 603.117 757.666 607.121ZM744.287 607.121C744.287 601.685 743.083 597.453 740.674 594.426C738.298 591.398 735.091 589.885 731.055 589.885C728.451 589.885 726.156 590.568 724.17 591.936C722.184 593.27 720.654 595.256 719.58 597.893C718.506 600.529 717.969 603.605 717.969 607.121C717.969 610.604 718.49 613.648 719.531 616.252C720.605 618.856 722.119 620.858 724.072 622.258C726.058 623.625 728.385 624.309 731.055 624.309C735.091 624.309 738.298 622.795 740.674 619.768C743.083 616.708 744.287 612.492 744.287 607.121ZM768.945 581.193H770.41V573.186C770.41 571.037 770.459 569.361 770.557 568.156C770.687 566.919 771.012 565.861 771.533 564.982C772.054 564.071 772.803 563.339 773.779 562.785C774.756 562.199 775.846 561.906 777.051 561.906C778.743 561.906 780.273 562.541 781.641 563.811C782.552 564.657 783.122 565.699 783.35 566.936C783.61 568.14 783.74 569.865 783.74 572.111V581.193H788.623C790.511 581.193 791.943 581.649 792.92 582.561C793.929 583.439 794.434 584.579 794.434 585.979C794.434 587.769 793.717 589.022 792.285 589.738C790.885 590.454 788.867 590.812 786.23 590.812H783.74V615.324C783.74 617.408 783.805 619.019 783.936 620.158C784.098 621.265 784.489 622.176 785.107 622.893C785.758 623.576 786.8 623.918 788.232 623.918C789.014 623.918 790.072 623.788 791.406 623.527C792.741 623.234 793.783 623.088 794.531 623.088C795.605 623.088 796.566 623.527 797.412 624.406C798.291 625.253 798.73 626.311 798.73 627.58C798.73 629.729 797.559 631.372 795.215 632.512C792.871 633.651 789.502 634.221 785.107 634.221C780.941 634.221 777.783 633.521 775.635 632.121C773.486 630.721 772.07 628.785 771.387 626.311C770.736 623.837 770.41 620.533 770.41 616.398V590.812H768.652C766.732 590.812 765.267 590.357 764.258 589.445C763.249 588.534 762.744 587.378 762.744 585.979C762.744 584.579 763.265 583.439 764.307 582.561C765.381 581.649 766.927 581.193 768.945 581.193ZM827.588 581.193H830.762V577.189C830.762 573.023 831.283 569.719 832.324 567.277C833.398 564.803 835.189 563.013 837.695 561.906C840.234 560.767 843.701 560.197 848.096 560.197C855.876 560.197 859.766 562.102 859.766 565.91C859.766 567.147 859.359 568.205 858.545 569.084C857.731 569.963 856.771 570.402 855.664 570.402C855.143 570.402 854.248 570.305 852.979 570.109C851.709 569.914 850.635 569.816 849.756 569.816C847.347 569.816 845.801 570.533 845.117 571.965C844.434 573.365 844.092 575.383 844.092 578.02V581.193H847.363C852.441 581.193 854.98 582.723 854.98 585.783C854.98 587.964 854.297 589.348 852.93 589.934C851.595 590.52 849.74 590.812 847.363 590.812H844.092V626.115C844.092 628.752 843.457 630.77 842.188 632.17C840.951 633.537 839.339 634.221 837.354 634.221C835.465 634.221 833.887 633.537 832.617 632.17C831.38 630.77 830.762 628.752 830.762 626.115V590.812H827.1C825.114 590.812 823.584 590.373 822.51 589.494C821.436 588.583 820.898 587.411 820.898 585.979C820.898 582.788 823.128 581.193 827.588 581.193ZM910.498 607.121C910.498 611.092 909.88 614.755 908.643 618.107C907.406 621.46 905.615 624.341 903.271 626.75C900.928 629.159 898.128 631.014 894.873 632.316C891.618 633.586 887.956 634.221 883.887 634.221C879.85 634.221 876.221 633.57 872.998 632.268C869.775 630.965 866.976 629.11 864.6 626.701C862.256 624.26 860.465 621.395 859.229 618.107C858.024 614.787 857.422 611.125 857.422 607.121C857.422 603.085 858.04 599.39 859.277 596.037C860.514 592.684 862.288 589.82 864.6 587.443C866.911 585.067 869.71 583.244 872.998 581.975C876.286 580.673 879.915 580.021 883.887 580.021C887.923 580.021 891.585 580.673 894.873 581.975C898.161 583.277 900.977 585.132 903.32 587.541C905.664 589.95 907.438 592.814 908.643 596.135C909.88 599.455 910.498 603.117 910.498 607.121ZM897.119 607.121C897.119 601.685 895.915 597.453 893.506 594.426C891.13 591.398 887.923 589.885 883.887 589.885C881.283 589.885 878.988 590.568 877.002 591.936C875.016 593.27 873.486 595.256 872.412 597.893C871.338 600.529 870.801 603.605 870.801 607.121C870.801 610.604 871.322 613.648 872.363 616.252C873.438 618.856 874.951 620.858 876.904 622.258C878.89 623.625 881.217 624.309 883.887 624.309C887.923 624.309 891.13 622.795 893.506 619.768C895.915 616.708 897.119 612.492 897.119 607.121ZM955.664 626.701V624.992C954.069 627.01 952.393 628.703 950.635 630.07C948.877 631.438 946.956 632.447 944.873 633.098C942.79 633.781 940.413 634.123 937.744 634.123C934.521 634.123 931.624 633.456 929.053 632.121C926.514 630.786 924.544 628.947 923.145 626.604C921.484 623.771 920.654 619.702 920.654 614.396V587.98C920.654 585.311 921.257 583.326 922.461 582.023C923.665 580.689 925.26 580.021 927.246 580.021C929.264 580.021 930.892 580.689 932.129 582.023C933.366 583.358 933.984 585.344 933.984 587.98V609.318C933.984 612.411 934.245 615.015 934.766 617.131C935.286 619.214 936.214 620.858 937.549 622.062C938.916 623.234 940.755 623.82 943.066 623.82C945.312 623.82 947.428 623.153 949.414 621.818C951.4 620.484 952.848 618.742 953.76 616.594C954.508 614.706 954.883 610.572 954.883 604.191V587.98C954.883 585.344 955.501 583.358 956.738 582.023C957.975 580.689 959.587 580.021 961.572 580.021C963.558 580.021 965.153 580.689 966.357 582.023C967.562 583.326 968.164 585.311 968.164 587.98V626.604C968.164 629.143 967.578 631.047 966.406 632.316C965.267 633.586 963.786 634.221 961.963 634.221C960.14 634.221 958.626 633.57 957.422 632.268C956.25 630.933 955.664 629.077 955.664 626.701ZM993.604 587.395V589.006C995.947 585.913 998.503 583.651 1001.27 582.219C1004.07 580.754 1007.28 580.021 1010.89 580.021C1014.4 580.021 1017.55 580.786 1020.31 582.316C1023.08 583.846 1025.15 586.011 1026.51 588.811C1027.39 590.438 1027.96 592.196 1028.22 594.084C1028.48 595.972 1028.61 598.381 1028.61 601.311V626.115C1028.61 628.785 1027.99 630.803 1026.76 632.17C1025.55 633.537 1023.97 634.221 1022.02 634.221C1020.04 634.221 1018.42 633.521 1017.19 632.121C1015.95 630.721 1015.33 628.719 1015.33 626.115V603.898C1015.33 599.504 1014.71 596.151 1013.48 593.84C1012.27 591.496 1009.85 590.324 1006.2 590.324C1003.82 590.324 1001.66 591.04 999.707 592.473C997.754 593.872 996.322 595.809 995.41 598.283C994.759 600.269 994.434 603.98 994.434 609.416V626.115C994.434 628.817 993.799 630.852 992.529 632.219C991.292 633.553 989.681 634.221 987.695 634.221C985.775 634.221 984.196 633.521 982.959 632.121C981.722 630.721 981.104 628.719 981.104 626.115V587.59C981.104 585.051 981.657 583.163 982.764 581.926C983.87 580.656 985.384 580.021 987.305 580.021C988.477 580.021 989.535 580.298 990.479 580.852C991.423 581.405 992.171 582.235 992.725 583.342C993.311 584.449 993.604 585.799 993.604 587.395ZM1078.47 626.604V625.285C1076.68 627.336 1074.9 629.012 1073.14 630.314C1071.42 631.584 1069.53 632.544 1067.48 633.195C1065.46 633.879 1063.25 634.221 1060.84 634.221C1057.65 634.221 1054.69 633.553 1051.95 632.219C1049.25 630.852 1046.91 628.915 1044.92 626.408C1042.94 623.902 1041.42 620.956 1040.38 617.57C1039.37 614.185 1038.87 610.523 1038.87 606.584C1038.87 598.251 1040.9 591.757 1044.97 587.102C1049.04 582.447 1054.39 580.119 1061.04 580.119C1064.88 580.119 1068.12 580.786 1070.75 582.121C1073.39 583.423 1075.96 585.441 1078.47 588.176V568.498C1078.47 565.764 1079 563.697 1080.08 562.297C1081.18 560.897 1082.75 560.197 1084.77 560.197C1086.78 560.197 1088.33 560.848 1089.4 562.15C1090.51 563.42 1091.06 565.308 1091.06 567.814V626.604C1091.06 629.143 1090.48 631.047 1089.31 632.316C1088.13 633.586 1086.62 634.221 1084.77 634.221C1082.94 634.221 1081.43 633.57 1080.22 632.268C1079.05 630.933 1078.47 629.045 1078.47 626.604ZM1052.25 607.023C1052.25 610.637 1052.8 613.713 1053.91 616.252C1055.05 618.791 1056.59 620.712 1058.54 622.014C1060.5 623.283 1062.63 623.918 1064.94 623.918C1067.29 623.918 1069.42 623.316 1071.34 622.111C1073.29 620.874 1074.84 619.003 1075.98 616.496C1077.15 613.957 1077.73 610.799 1077.73 607.023C1077.73 603.475 1077.15 600.432 1075.98 597.893C1074.84 595.321 1073.27 593.368 1071.29 592.033C1069.34 590.666 1067.19 589.982 1064.84 589.982C1062.4 589.982 1060.22 590.682 1058.3 592.082C1056.38 593.449 1054.88 595.435 1053.81 598.039C1052.77 600.611 1052.25 603.605 1052.25 607.023Z" fill="white"/>
</g>
<g clip-path="url(#clip0)">
<g opacity="0.1">
<path opacity="0.1" d="M154.682 764.909L190.581 796.854L200.246 749.763L164.071 718.094L118.784 733.24L109.119 780.331L154.682 764.909Z" fill="#42E8E0"/>
<path opacity="0.1" d="M164.071 718.094L200.246 749.763L190.581 796.854L154.682 764.909L164.071 718.094Z" fill="#42E8E0"/>
<path opacity="0.1" d="M118.784 733.24L164.071 718.094L154.682 764.909L109.119 780.331L118.784 733.24Z" fill="#2FD3C7"/>
<path opacity="0.1" d="M154.682 764.909L190.581 796.854L145.017 812L109.119 780.331L154.682 764.909Z" fill="#42E8E0"/>
<path opacity="0.1" d="M154.682 764.909L190.581 796.854L191.133 794.651L154.958 762.982L109.395 778.128L109.119 780.331L154.682 764.909Z" fill="white"/>
</g>
<g opacity="0.15">
<path opacity="0.4" d="M162.138 746.734L120.441 722.775L162.138 698.817L203.559 722.775L162.138 746.734Z" fill="#03002D"/>
</g>
<path opacity="0.4" d="M162.138 788.317C134.8 788.317 107.186 782.258 86.4752 770.417C66.0406 758.575 54.7188 743.154 54.7188 726.631C54.7188 710.108 66.0406 694.411 86.199 682.845C128.173 658.611 196.104 658.611 237.801 682.569C257.959 694.411 269.281 709.832 269.281 726.631C269.281 743.154 257.959 758.851 237.801 770.417C216.814 782.258 189.476 788.317 162.138 788.317ZM162.138 665.495C134.8 665.495 107.738 671.554 86.7513 683.395C66.5929 694.962 55.5472 710.108 55.5472 726.631C55.5472 742.878 66.5929 758.3 86.4752 769.866C127.896 793.825 195.551 793.825 236.973 769.866C257.131 758.3 267.901 743.154 267.901 726.906C267.901 710.658 256.855 695.237 236.973 683.671C216.538 671.554 189.2 665.495 162.138 665.495Z" fill="#42E8E0"/>
<path opacity="0.2" d="M162.138 804.84C127.344 804.84 92.5503 797.129 66.0406 781.983C40.0832 767.388 26 747.56 26 726.631C26 705.702 40.0832 685.874 66.0406 671.003C119.06 640.435 205.216 640.435 258.236 671.003C283.917 685.874 298.276 705.702 298.276 726.631C298.276 747.56 284.193 767.388 258.236 782.258L257.959 781.708L258.236 781.983C231.726 797.405 196.932 804.84 162.138 804.84ZM162.138 648.972C127.62 648.972 92.8264 656.683 66.5929 671.829C40.9117 686.425 26.8284 705.702 26.8284 726.631C26.8284 747.285 40.9117 766.837 66.3168 781.432C119.06 811.725 204.94 811.725 257.683 781.432C283.088 766.837 297.172 747.285 297.172 726.631C297.172 705.977 283.088 686.425 257.683 671.554C231.174 656.408 196.656 648.972 162.138 648.972Z" fill="#42E8E0"/>
<path d="M162.138 775.374C140.599 775.374 118.784 770.692 102.491 761.054C86.4751 751.966 77.6385 739.574 77.6385 726.355C77.6385 713.137 86.4751 701.02 102.491 691.657C135.352 672.655 188.924 672.655 221.785 691.657C237.801 701.02 246.638 713.137 246.638 726.355C246.638 739.574 237.801 751.691 221.785 761.054C205.216 770.692 183.677 775.374 162.138 775.374ZM162.138 678.438C140.599 678.438 119.336 683.12 102.767 692.483C87.0274 701.571 78.467 713.688 78.467 726.631C78.467 739.574 87.0274 751.415 102.767 760.503C135.352 779.229 188.648 779.229 221.232 760.503L221.509 760.778L221.232 760.503C236.973 751.415 245.533 739.298 245.533 726.631C245.533 713.963 236.973 701.846 221.232 692.758C204.94 683.12 183.401 678.438 162.138 678.438Z" fill="#42E8E0"/>
<path d="M157.168 680.642L152.473 633L113.537 661.089L118.232 708.731L161.862 728.283L201.074 700.469L157.168 680.642Z" fill="#42E8E0"/>
<path d="M118.232 708.731L113.537 661.089L152.473 633L157.168 680.642L118.232 708.731Z" fill="#42E8E0"/>
<path d="M161.862 728.283L118.232 708.731L157.168 680.642L201.074 700.469L161.862 728.283Z" fill="#18A08E"/>
<path d="M157.168 680.642L152.473 633L196.38 652.828L201.074 700.469L157.168 680.642Z" fill="#42E8E0"/>
<path d="M157.168 680.642L152.473 633L150.816 634.102L155.511 682.018L199.417 701.571L201.074 700.469L157.168 680.642Z" fill="white"/>
<path opacity="0.4" d="M137.561 717.268H177.326L161.862 728.283L137.561 717.268Z" fill="#03002D"/>
</g>
<g clip-path="url(#clip1)">
<g opacity="0.1">
<path opacity="0.1" d="M1310.78 683.326L1336.38 706.169L1343.28 672.495L1317.48 649.849L1285.18 660.68L1278.28 694.354L1310.78 683.326Z" fill="#42E8E0"/>
<path opacity="0.1" d="M1317.48 649.849L1343.28 672.495L1336.38 706.169L1310.78 683.326L1317.48 649.849Z" fill="#42E8E0"/>
<path opacity="0.1" d="M1285.18 660.68L1317.48 649.849L1310.78 683.326L1278.28 694.354L1285.18 660.68Z" fill="#2FD3C7"/>
<path opacity="0.1" d="M1310.78 683.326L1336.38 706.169L1303.89 717L1278.28 694.354L1310.78 683.326Z" fill="#42E8E0"/>
<path opacity="0.1" d="M1310.78 683.326L1336.38 706.169L1336.78 704.594L1310.98 681.948L1278.48 692.778L1278.28 694.354L1310.78 683.326Z" fill="white"/>
</g>
<g opacity="0.15">
<path opacity="0.4" d="M1316.1 670.329L1286.36 653.197L1316.1 636.065L1345.64 653.197L1316.1 670.329Z" fill="#03002D"/>
</g>
<path opacity="0.4" d="M1316.1 700.065C1296.6 700.065 1276.9 695.732 1262.13 687.265C1247.56 678.797 1239.48 667.769 1239.48 655.954C1239.48 644.138 1247.56 632.914 1261.94 624.643C1291.87 607.314 1340.32 607.314 1370.06 624.446C1384.44 632.914 1392.52 643.942 1392.52 655.954C1392.52 667.769 1384.44 678.994 1370.06 687.265C1355.1 695.732 1335.6 700.065 1316.1 700.065ZM1316.1 612.237C1296.6 612.237 1277.3 616.569 1262.33 625.037C1247.95 633.308 1240.07 644.138 1240.07 655.954C1240.07 667.572 1247.95 678.6 1262.13 686.871C1291.68 704.003 1339.93 704.003 1369.47 686.871C1383.85 678.6 1391.53 667.769 1391.53 656.151C1391.53 644.532 1383.65 633.505 1369.47 625.234C1354.9 616.569 1335.4 612.237 1316.1 612.237Z" fill="#42E8E0"/>
<path opacity="0.2" d="M1316.1 711.88C1291.28 711.88 1266.47 706.366 1247.56 695.535C1229.04 685.098 1219 670.92 1219 655.954C1219 640.988 1229.04 626.809 1247.56 616.175C1285.37 594.317 1346.82 594.317 1384.64 616.175C1402.96 626.809 1413.2 640.988 1413.2 655.954C1413.2 670.92 1403.15 685.098 1384.64 695.732L1384.44 695.338L1384.64 695.535C1365.73 706.563 1340.91 711.88 1316.1 711.88ZM1316.1 600.422C1291.48 600.422 1266.66 605.935 1247.95 616.766C1229.64 627.203 1219.59 640.988 1219.59 655.954C1219.59 670.723 1229.64 684.705 1247.76 695.142C1285.37 716.803 1346.63 716.803 1384.24 695.142C1402.36 684.705 1412.41 670.723 1412.41 655.954C1412.41 641.185 1402.36 627.203 1384.24 616.569C1365.34 605.738 1340.72 600.422 1316.1 600.422Z" fill="#42E8E0"/>
<path d="M1316.1 690.809C1300.74 690.809 1285.18 687.462 1273.56 680.569C1262.13 674.071 1255.83 665.209 1255.83 655.757C1255.83 646.305 1262.13 637.64 1273.56 630.945C1296.99 617.357 1335.2 617.357 1358.64 630.945C1370.06 637.64 1376.37 646.305 1376.37 655.757C1376.37 665.209 1370.06 673.874 1358.64 680.569C1346.82 687.462 1331.46 690.809 1316.1 690.809ZM1316.1 621.492C1300.74 621.492 1285.57 624.84 1273.75 631.535C1262.53 638.034 1256.42 646.698 1256.42 655.954C1256.42 665.209 1262.53 673.677 1273.75 680.175C1296.99 693.566 1335.01 693.566 1358.25 680.175L1358.44 680.372L1358.25 680.175C1369.47 673.677 1375.58 665.012 1375.58 655.954C1375.58 646.895 1369.47 638.231 1358.25 631.732C1346.63 624.84 1331.26 621.492 1316.1 621.492Z" fill="#42E8E0"/>
<path d="M1312.55 623.068L1309.21 589L1281.43 609.086L1284.78 643.154L1315.9 657.135L1343.87 637.246L1312.55 623.068Z" fill="#42E8E0"/>
<path d="M1284.78 643.154L1281.43 609.086L1309.21 589L1312.55 623.068L1284.78 643.154Z" fill="#42E8E0"/>
<path d="M1315.9 657.135L1284.78 643.154L1312.55 623.068L1343.87 637.246L1315.9 657.135Z" fill="#18A08E"/>
<path d="M1312.55 623.068L1309.21 589L1340.52 603.178L1343.87 637.246L1312.55 623.068Z" fill="#42E8E0"/>
<path d="M1312.55 623.068L1309.21 589L1308.02 589.788L1311.37 624.052L1342.69 638.034L1343.87 637.246L1312.55 623.068Z" fill="white"/>
<path opacity="0.4" d="M1298.57 649.258H1326.93L1315.9 657.135L1298.57 649.258Z" fill="#03002D"/>
</g>
<path opacity="0.1" d="M1297.91 264.332L1244.74 233.498V295.166L1297.91 326L1351.42 295.166V233.498L1297.91 264.332Z" fill="#42E8E0"/>
<path opacity="0.1" d="M1297.91 326L1244.74 295.166V233.498L1297.91 264.332V326Z" fill="#42E8E0"/>
<path opacity="0.1" d="M1351.42 295.166L1297.91 326V264.332L1351.42 233.498V295.166Z" fill="#2FD3C7"/>
<path opacity="0.1" d="M1297.91 264.332L1244.74 233.498L1297.91 202.664L1351.42 233.498L1297.91 264.332Z" fill="#42E8E0"/>
<path opacity="0.1" d="M1297.91 264.332L1244.74 233.498V236.333L1297.91 267.167L1351.42 236.333V233.498L1297.91 264.332Z" fill="white"/>
<path d="M1299.32 241.65L1221 196.285L1221.71 195.93L1299.32 151.274H1299.68L1378 196.285L1376.94 196.639L1299.32 241.65ZM1223.13 196.285L1299.32 240.232L1375.52 196.285L1299.32 152.337L1223.13 196.285Z" fill="#42E8E0"/>
<path opacity="0.15" d="M1297.91 227.119L1244.74 196.285L1297.91 165.451L1351.42 196.285L1297.91 227.119Z" fill="#03002D"/>
<path d="M1297.91 118.668L1244.74 87.834V149.502L1297.91 180.336L1351.42 149.502V87.834L1297.91 118.668Z" fill="#42E8E0"/>
<path d="M1297.91 180.336L1244.74 149.502V87.834L1297.91 118.668V180.336Z" fill="#42E8E0"/>
<path d="M1351.42 149.502L1297.91 180.336V118.668L1351.42 87.834V149.502Z" fill="#2EB4A2"/>
<path d="M1297.91 118.668L1244.74 87.834L1297.91 57L1351.42 87.834L1297.91 118.668Z" fill="#42E8E0"/>
<path d="M1297.91 118.668L1244.74 87.834V90.6693L1297.91 121.503L1351.42 90.6693V87.834L1297.91 118.668Z" fill="white"/>
<path opacity="0.1" d="M212.738 402.656L187.343 387.984V417.328L212.738 432L238.303 417.328V387.984L212.738 402.656Z" fill="#42E8E0"/>
<path opacity="0.1" d="M212.738 432L187.343 417.328V387.984L212.738 402.656V432Z" fill="#42E8E0"/>
<path opacity="0.1" d="M238.302 417.328L212.738 432V402.656L238.302 387.984V417.328Z" fill="#2FD3C7"/>
<path opacity="0.1" d="M212.738 402.656L187.343 387.984L212.738 373.312L238.303 387.984L212.738 402.656Z" fill="#42E8E0"/>
<path opacity="0.1" d="M212.738 402.656L187.343 387.984V389.333L212.738 404.005L238.303 389.333V387.984L212.738 402.656Z" fill="white"/>
<path d="M213.415 391.863L176 370.277L176.339 370.108L213.415 348.859H213.585L251 370.277L250.492 370.445L213.415 391.863ZM177.016 370.277L213.415 391.188L249.815 370.277L213.415 349.365L177.016 370.277Z" fill="#42E8E0"/>
<path opacity="0.15" d="M212.738 384.949L187.343 370.277L212.738 355.605L238.303 370.277L212.738 384.949Z" fill="#03002D"/>
<path d="M212.738 333.344L187.343 318.672V348.016L212.738 362.688L238.303 348.016V318.672L212.738 333.344Z" fill="#42E8E0"/>
<path d="M212.738 362.688L187.343 348.016V318.672L212.738 333.344V362.688Z" fill="#42E8E0"/>
<path d="M238.302 348.016L212.738 362.688V333.344L238.302 318.672V348.016Z" fill="#2EB4A2"/>
<path d="M212.738 333.344L187.343 318.672L212.738 304L238.303 318.672L212.738 333.344Z" fill="#42E8E0"/>
<path d="M212.738 333.344L187.343 318.672V320.021L212.738 334.693L238.303 320.021V318.672L212.738 333.344Z" fill="white"/>
<defs>
<filter id="filter0_i" x="333" y="114.144" width="774" height="675.5" filterUnits="userSpaceOnUse" color-interpolation-filters="sRGB">
<feFlood flood-opacity="0" result="BackgroundImageFix"/>
<feBlend mode="normal" in="SourceGraphic" in2="BackgroundImageFix" result="shape"/>
<feColorMatrix in="SourceAlpha" type="matrix" values="0 0 0 0 0 0 0 0 0 0 0 0 0 0 0 0 0 0 127 0" result="hardAlpha"/>
<feOffset/>
<feGaussianBlur stdDeviation="12.5"/>
<feComposite in2="hardAlpha" operator="arithmetic" k2="-1" k3="1"/>
<feColorMatrix type="matrix" values="0 0 0 0 0 0 0 0 0 0 0 0 0 0 0 0 0 0 0.15 0"/>
<feBlend mode="normal" in2="shape" result="effect1_innerShadow"/>
</filter>
<filter id="filter1_i" x="419" y="166.144" width="582.5" height="535" filterUnits="userSpaceOnUse" color-interpolation-filters="sRGB">
<feFlood flood-opacity="0" result="BackgroundImageFix"/>
<feBlend mode="normal" in="SourceGraphic" in2="BackgroundImageFix" result="shape"/>
<feColorMatrix in="SourceAlpha" type="matrix" values="0 0 0 0 0 0 0 0 0 0 0 0 0 0 0 0 0 0 127 0" result="hardAlpha"/>
<feOffset dy="4"/>
<feGaussianBlur stdDeviation="12.5"/>
<feComposite in2="hardAlpha" operator="arithmetic" k2="-1" k3="1"/>
<feColorMatrix type="matrix" values="0 0 0 0 0 0 0 0 0 0 0 0 0 0 0 0 0 0 0.15 0"/>
<feBlend mode="normal" in2="shape" result="effect1_innerShadow"/>
</filter>
<filter id="filter2_i" x="389.159" y="110" width="661.376" height="669.38" filterUnits="userSpaceOnUse" color-interpolation-filters="sRGB">
<feFlood flood-opacity="0" result="BackgroundImageFix"/>
<feBlend mode="normal" in="SourceGraphic" in2="BackgroundImageFix" result="shape"/>
<feColorMatrix in="SourceAlpha" type="matrix" values="0 0 0 0 0 0 0 0 0 0 0 0 0 0 0 0 0 0 127 0" result="hardAlpha"/>
<feOffset dy="4"/>
<feGaussianBlur stdDeviation="12.5"/>
<feComposite in2="hardAlpha" operator="arithmetic" k2="-1" k3="1"/>
<feColorMatrix type="matrix" values="0 0 0 0 0 0 0 0 0 0 0 0 0 0 0 0 0 0 0.25 0"/>
<feBlend mode="normal" in2="shape" result="effect1_innerShadow"/>
</filter>
<filter id="filter3_i" x="454.276" y="174.649" width="558.873" height="563.207" filterUnits="userSpaceOnUse" color-interpolation-filters="sRGB">
<feFlood flood-opacity="0" result="BackgroundImageFix"/>
<feBlend mode="normal" in="SourceGraphic" in2="BackgroundImageFix" result="shape"/>
<feColorMatrix in="SourceAlpha" type="matrix" values="0 0 0 0 0 0 0 0 0 0 0 0 0 0 0 0 0 0 127 0" result="hardAlpha"/>
<feOffset dy="8"/>
<feGaussianBlur stdDeviation="12.5"/>
<feComposite in2="hardAlpha" operator="arithmetic" k2="-1" k3="1"/>
<feColorMatrix type="matrix" values="0 0 0 0 0 0 0 0 0 0 0 0 0 0 0 0 0 0 0.15 0"/>
<feBlend mode="normal" in2="shape" result="effect1_innerShadow"/>
</filter>
<filter id="filter4_i" x="518" y="243.144" width="436.303" height="433.441" filterUnits="userSpaceOnUse" color-interpolation-filters="sRGB">
<feFlood flood-opacity="0" result="BackgroundImageFix"/>
<feBlend mode="normal" in="SourceGraphic" in2="BackgroundImageFix" result="shape"/>
<feColorMatrix in="SourceAlpha" type="matrix" values="0 0 0 0 0 0 0 0 0 0 0 0 0 0 0 0 0 0 127 0" result="hardAlpha"/>
<feOffset/>
<feGaussianBlur stdDeviation="15"/>
<feComposite in2="hardAlpha" operator="arithmetic" k2="-1" k3="1"/>
<feColorMatrix type="matrix" values="0 0 0 0 0 0 0 0 0 0 0 0 0 0 0 0 0 0 0.15 0"/>
<feBlend mode="normal" in2="shape" result="effect1_innerShadow"/>
</filter>
<filter id="filter5_i" x="1087" y="291" width="199.93" height="201.266" filterUnits="userSpaceOnUse" color-interpolation-filters="sRGB">
<feFlood flood-opacity="0" result="BackgroundImageFix"/>
<feBlend mode="normal" in="SourceGraphic" in2="BackgroundImageFix" result="shape"/>
<feColorMatrix in="SourceAlpha" type="matrix" values="0 0 0 0 0 0 0 0 0 0 0 0 0 0 0 0 0 0 127 0" result="hardAlpha"/>
<feOffset/>
<feGaussianBlur stdDeviation="15"/>
<feComposite in2="hardAlpha" operator="arithmetic" k2="-1" k3="1"/>
<feColorMatrix type="matrix" values="0 0 0 0 0 0 0 0 0 0 0 0 0 0 0 0 0 0 0.15 0"/>
<feBlend mode="normal" in2="shape" result="effect1_innerShadow"/>
</filter>
<filter id="filter6_d" x="430.662" y="276.471" width="576.025" height="271.191" filterUnits="userSpaceOnUse" color-interpolation-filters="sRGB">
<feFlood flood-opacity="0" result="BackgroundImageFix"/>
<feColorMatrix in="SourceAlpha" type="matrix" values="0 0 0 0 0 0 0 0 0 0 0 0 0 0 0 0 0 0 127 0"/>
<feOffset dy="4"/>
<feGaussianBlur stdDeviation="12.5"/>
<feColorMatrix type="matrix" values="0 0 0 0 0 0 0 0 0 0 0 0 0 0 0 0 0 0 0.6 0"/>
<feBlend mode="normal" in2="BackgroundImageFix" result="effect1_dropShadow"/>
<feBlend mode="normal" in="SourceGraphic" in2="effect1_dropShadow" result="shape"/>
</filter>
<filter id="filter7_i" x="195" y="70" width="216" height="192" filterUnits="userSpaceOnUse" color-interpolation-filters="sRGB">
<feFlood flood-opacity="0" result="BackgroundImageFix"/>
<feBlend mode="normal" in="SourceGraphic" in2="BackgroundImageFix" result="shape"/>
<feColorMatrix in="SourceAlpha" type="matrix" values="0 0 0 0 0 0 0 0 0 0 0 0 0 0 0 0 0 0 127 0" result="hardAlpha"/>
<feOffset/>
<feGaussianBlur stdDeviation="12.5"/>
<feComposite in2="hardAlpha" operator="arithmetic" k2="-1" k3="1"/>
<feColorMatrix type="matrix" values="0 0 0 0 0 0 0 0 0 0 0 0 0 0 0 0 0 0 0.15 0"/>
<feBlend mode="normal" in2="shape" result="effect1_innerShadow"/>
</filter>
<filter id="filter8_i" x="1029" y="677" width="192" height="196" filterUnits="userSpaceOnUse" color-interpolation-filters="sRGB">
<feFlood flood-opacity="0" result="BackgroundImageFix"/>
<feBlend mode="normal" in="SourceGraphic" in2="BackgroundImageFix" result="shape"/>
<feColorMatrix in="SourceAlpha" type="matrix" values="0 0 0 0 0 0 0 0 0 0 0 0 0 0 0 0 0 0 127 0" result="hardAlpha"/>
<feOffset dy="4"/>
<feGaussianBlur stdDeviation="6"/>
<feComposite in2="hardAlpha" operator="arithmetic" k2="-1" k3="1"/>
<feColorMatrix type="matrix" values="0 0 0 0 0 0 0 0 0 0 0 0 0 0 0 0 0 0 0.1 0"/>
<feBlend mode="normal" in2="shape" result="effect1_innerShadow"/>
</filter>
<filter id="filter9_i" x="338" y="709" width="81" height="81" filterUnits="userSpaceOnUse" color-interpolation-filters="sRGB">
<feFlood flood-opacity="0" result="BackgroundImageFix"/>
<feBlend mode="normal" in="SourceGraphic" in2="BackgroundImageFix" result="shape"/>
<feColorMatrix in="SourceAlpha" type="matrix" values="0 0 0 0 0 0 0 0 0 0 0 0 0 0 0 0 0 0 127 0" result="hardAlpha"/>
<feOffset/>
<feGaussianBlur stdDeviation="5"/>
<feComposite in2="hardAlpha" operator="arithmetic" k2="-1" k3="1"/>
<feColorMatrix type="matrix" values="0 0 0 0 0 0 0 0 0 0 0 0 0 0 0 0 0 0 0.25 0"/>
<feBlend mode="normal" in2="shape" result="effect1_innerShadow"/>
</filter>
<filter id="filter10_i" x="1066" y="694" width="121" height="106" filterUnits="userSpaceOnUse" color-interpolation-filters="sRGB">
<feFlood flood-opacity="0" result="BackgroundImageFix"/>
<feBlend mode="normal" in="SourceGraphic" in2="BackgroundImageFix" result="shape"/>
<feColorMatrix in="SourceAlpha" type="matrix" values="0 0 0 0 0 0 0 0 0 0 0 0 0 0 0 0 0 0 127 0" result="hardAlpha"/>
<feOffset/>
<feGaussianBlur stdDeviation="5"/>
<feComposite in2="hardAlpha" operator="arithmetic" k2="-1" k3="1"/>
<feColorMatrix type="matrix" values="0 0 0 0 0 0 0 0 0 0 0 0 0 0 0 0 0 0 0.25 0"/>
<feBlend mode="normal" in2="shape" result="effect1_innerShadow"/>
</filter>
<filter id="filter11_i" x="65" y="497" width="81" height="81" filterUnits="userSpaceOnUse" color-interpolation-filters="sRGB">
<feFlood flood-opacity="0" result="BackgroundImageFix"/>
<feBlend mode="normal" in="SourceGraphic" in2="BackgroundImageFix" result="shape"/>
<feColorMatrix in="SourceAlpha" type="matrix" values="0 0 0 0 0 0 0 0 0 0 0 0 0 0 0 0 0 0 127 0" result="hardAlpha"/>
<feOffset/>
<feGaussianBlur stdDeviation="7.5"/>
<feComposite in2="hardAlpha" operator="arithmetic" k2="-1" k3="1"/>
<feColorMatrix type="matrix" values="0 0 0 0 0 0 0 0 0 0 0 0 0 0 0 0 0 0 0.25 0"/>
<feBlend mode="normal" in2="shape" result="effect1_innerShadow"/>
</filter>
<filter id="filter12_i" x="232.637" y="104" width="128.96" height="127" filterUnits="userSpaceOnUse" color-interpolation-filters="sRGB">
<feFlood flood-opacity="0" result="BackgroundImageFix"/>
<feBlend mode="normal" in="SourceGraphic" in2="BackgroundImageFix" result="shape"/>
<feColorMatrix in="SourceAlpha" type="matrix" values="0 0 0 0 0 0 0 0 0 0 0 0 0 0 0 0 0 0 127 0" result="hardAlpha"/>
<feOffset/>
<feGaussianBlur stdDeviation="7.5"/>
<feComposite in2="hardAlpha" operator="arithmetic" k2="-1" k3="1"/>
<feColorMatrix type="matrix" values="0 0 0 0 0 0 0 0 0 0 0 0 0 0 0 0 0 0 0.25 0"/>
<feBlend mode="normal" in2="shape" result="effect1_innerShadow"/>
</filter>
<filter id="filter13_i" x="734" y="29" width="56" height="60" filterUnits="userSpaceOnUse" color-interpolation-filters="sRGB">
<feFlood flood-opacity="0" result="BackgroundImageFix"/>
<feBlend mode="normal" in="SourceGraphic" in2="BackgroundImageFix" result="shape"/>
<feColorMatrix in="SourceAlpha" type="matrix" values="0 0 0 0 0 0 0 0 0 0 0 0 0 0 0 0 0 0 127 0" result="hardAlpha"/>
<feOffset dy="4"/>
<feGaussianBlur stdDeviation="5.5"/>
<feComposite in2="hardAlpha" operator="arithmetic" k2="-1" k3="1"/>
<feColorMatrix type="matrix" values="0 0 0 0 0 0 0 0 0 0 0 0 0 0 0 0 0 0 0.25 0"/>
<feBlend mode="normal" in2="shape" result="effect1_innerShadow"/>
</filter>
<filter id="filter14_d" x="357.812" y="539.197" width="758.252" height="143.799" filterUnits="userSpaceOnUse" color-interpolation-filters="sRGB">
<feFlood flood-opacity="0" result="BackgroundImageFix"/>
<feColorMatrix in="SourceAlpha" type="matrix" values="0 0 0 0 0 0 0 0 0 0 0 0 0 0 0 0 0 0 127 0"/>
<feOffset dy="4"/>
<feGaussianBlur stdDeviation="12.5"/>
<feColorMatrix type="matrix" values="0 0 0 0 0 0 0 0 0 0 0 0 0 0 0 0 0 0 0.6 0"/>
<feBlend mode="normal" in2="BackgroundImageFix" result="effect1_dropShadow"/>
<feBlend mode="normal" in="SourceGraphic" in2="effect1_dropShadow" result="shape"/>
</filter>
<clipPath id="clip0">
<rect width="272" height="179" fill="white" transform="translate(26 633)"/>
</clipPath>
<clipPath id="clip1">
<rect width="194" height="128" fill="white" transform="translate(1219 589)"/>
</clipPath>
</defs>
</svg>
