<?xml version="1.0" encoding="utf-8"?>
<!-- Generator: Adobe Illustrator 18.1.1, SVG Export Plug-In . SVG Version: 6.00 Build 0)  -->
<svg version="1.1" id="Слой_1" xmlns="http://www.w3.org/2000/svg" xmlns:xlink="http://www.w3.org/1999/xlink" x="0px" y="0px"
	 viewBox="0 0 26.8 16.9" enable-background="new 0 0 26.8 16.9" xml:space="preserve">
<g>
	<path fill="none" stroke="#757575" stroke-width="2" stroke-linecap="round" stroke-linejoin="round" stroke-miterlimit="10" d="
		M-81.2-159.7l-18.3-11.7c-0.6-0.4-0.6-1.2,0-1.5l18.3-11.7c0.3-0.2,0.7-0.2,1,0l18.3,11.7c0.6,0.4,0.6,1.2,0,1.5l-18.3,11.7
		C-80.6-159.5-81-159.5-81.2-159.7z"/>
	
		<polygon fill="none" stroke="#757575" stroke-width="2" stroke-linecap="round" stroke-linejoin="round" stroke-miterlimit="10" points="
		-80.8,-138.1 -100,-150.6 -100,-171.9 -80.8,-159.4 	"/>
	
		<polygon fill="none" stroke="#757575" stroke-width="2" stroke-linecap="round" stroke-linejoin="round" stroke-miterlimit="10" points="
		-80.8,-138.1 -61.5,-150.6 -61.5,-171.9 -80.8,-159.4 	"/>
</g>
<g>
	<path fill="none" stroke="#2196F3" stroke-width="2" stroke-linecap="round" stroke-linejoin="round" stroke-miterlimit="10" d="
		M-140.2-159.7l-18.3-11.7c-0.6-0.4-0.6-1.2,0-1.5l18.3-11.7c0.3-0.2,0.7-0.2,1,0l18.3,11.7c0.6,0.4,0.6,1.2,0,1.5l-18.3,11.7
		C-139.6-159.5-140-159.5-140.2-159.7z"/>
	
		<polygon fill="none" stroke="#2196F3" stroke-width="2" stroke-linecap="round" stroke-linejoin="round" stroke-miterlimit="10" points="
		-139.8,-138.1 -159,-150.6 -159,-171.9 -139.8,-159.4 	"/>
	
		<polygon fill="none" stroke="#2196F3" stroke-width="2" stroke-linecap="round" stroke-linejoin="round" stroke-miterlimit="10" points="
		-139.8,-138.1 -120.5,-150.6 -120.5,-171.9 -139.8,-159.4 	"/>
</g>
<g>
	<path fill="none" stroke="#ACACAC" stroke-width="2" stroke-linecap="round" stroke-linejoin="round" stroke-miterlimit="10" d="
		M-140.2-104.6l-18.3-11.7c-0.6-0.4-0.6-1.2,0-1.5l18.3-11.7c0.3-0.2,0.7-0.2,1,0l18.3,11.7c0.6,0.4,0.6,1.2,0,1.5l-18.3,11.7
		C-139.6-104.4-140-104.4-140.2-104.6z"/>
	
		<polygon fill="none" stroke="#ACACAC" stroke-width="2" stroke-linecap="round" stroke-linejoin="round" stroke-miterlimit="10" points="
		-139.8,-83 -159,-95.4 -159,-116.8 -139.8,-104.3 	"/>
	
		<polygon fill="none" stroke="#ACACAC" stroke-width="2" stroke-linecap="round" stroke-linejoin="round" stroke-miterlimit="10" points="
		-139.8,-83 -120.5,-95.4 -120.5,-116.8 -139.8,-104.3 	"/>
</g>
<g>
	<path fill="none" stroke="#2196F3" stroke-width="2" stroke-linecap="round" stroke-linejoin="round" stroke-miterlimit="10" d="
		M-195.7-160.4l-11-7c-0.3-0.2-0.3-0.7,0-0.9l11-7c0.2-0.1,0.4-0.1,0.6,0l11,7c0.3,0.2,0.3,0.7,0,0.9l-11,7
		C-195.3-160.3-195.5-160.3-195.7-160.4z"/>
	
		<polygon fill="none" stroke="#2196F3" stroke-width="2" stroke-linecap="round" stroke-linejoin="round" stroke-miterlimit="10" points="
		-195.4,-147.4 -207,-154.9 -207,-167.7 -195.4,-160.2 	"/>
	
		<polygon fill="none" stroke="#2196F3" stroke-width="2" stroke-linecap="round" stroke-linejoin="round" stroke-miterlimit="10" points="
		-195.4,-147.4 -183.8,-154.9 -183.8,-167.7 -195.4,-160.2 	"/>
</g>
<g>
	
		<line fill="none" stroke="#AFAEAE" stroke-width="2" stroke-linecap="round" stroke-linejoin="round" stroke-miterlimit="10" x1="145.5" y1="10.4" x2="160.3" y2="10.4"/>
	<path fill="#AFAEAE" d="M157.1,13.9v-7c0-1,1.1-1.6,1.9-1.1l6,3.5c0.8,0.5,0.8,1.7,0,2.2l-6,3.5C158.2,15.5,157.1,14.9,157.1,13.9z
		"/>
</g>
<g>
	<g>
		<path fill="none" stroke="#757575" stroke-width="2" stroke-linecap="round" stroke-linejoin="round" stroke-miterlimit="10" d="
			M-15.5-159.7l-18.3-11.7c-0.6-0.4-0.6-1.2,0-1.5l18.3-11.7c0.3-0.2,0.7-0.2,1,0l18.3,11.7c0.6,0.4,0.6,1.2,0,1.5l-18.3,11.7
			C-14.8-159.5-15.2-159.5-15.5-159.7z"/>
		
			<polygon fill="none" stroke="#757575" stroke-width="2" stroke-linecap="round" stroke-linejoin="round" stroke-miterlimit="10" points="
			-15,-138 -34.2,-150.5 -34.2,-171.8 -15,-159.3 		"/>
		
			<polygon fill="none" stroke="#757575" stroke-width="2" stroke-linecap="round" stroke-linejoin="round" stroke-miterlimit="10" points="
			-15,-138 4.2,-150.5 4.2,-171.8 -15,-159.3 		"/>
	</g>
	<g>
		
			<line fill="#FFFFFF" stroke="#2196F3" stroke-width="2" stroke-linecap="round" stroke-linejoin="round" stroke-miterlimit="10" x1="-29.9" y1="-163.3" x2="-19.9" y2="-156.9"/>
		
			<line fill="#FFFFFF" stroke="#2196F3" stroke-width="2" stroke-linecap="round" stroke-linejoin="round" stroke-miterlimit="10" x1="-29.9" y1="-158.2" x2="-19.9" y2="-151.8"/>
		
			<line fill="#FFFFFF" stroke="#2196F3" stroke-width="2" stroke-linecap="round" stroke-linejoin="round" stroke-miterlimit="10" x1="-29.9" y1="-153.4" x2="-19.9" y2="-146.9"/>
	</g>
	<g>
		
			<line fill="#FFFFFF" stroke="#2196F3" stroke-width="2" stroke-linecap="round" stroke-linejoin="round" stroke-miterlimit="10" x1="-0.4" y1="-163.2" x2="-10.3" y2="-156.7"/>
		
			<line fill="#FFFFFF" stroke="#2196F3" stroke-width="2" stroke-linecap="round" stroke-linejoin="round" stroke-miterlimit="10" x1="-0.4" y1="-158.1" x2="-10.3" y2="-151.6"/>
		
			<line fill="#FFFFFF" stroke="#2196F3" stroke-width="2" stroke-linecap="round" stroke-linejoin="round" stroke-miterlimit="10" x1="-0.4" y1="-153.3" x2="-10.3" y2="-146.8"/>
	</g>
</g>
<g>
	
		<polyline fill="none" stroke="#757575" stroke-width="2" stroke-linecap="round" stroke-linejoin="round" stroke-miterlimit="10" points="
		54.6,-163 54.6,-184.4 32.1,-169.8 32.1,-146.7 	"/>
	<g>
		
			<line fill="none" stroke="#757575" stroke-width="2" stroke-linecap="round" stroke-linejoin="round" stroke-miterlimit="10" x1="49.8" y1="-173.2" x2="36.9" y2="-164.9"/>
		
			<line fill="none" stroke="#757575" stroke-width="2" stroke-linecap="round" stroke-linejoin="round" stroke-miterlimit="10" x1="49.8" y1="-166.6" x2="36.9" y2="-158.2"/>
		
			<line fill="none" stroke="#757575" stroke-width="2" stroke-linecap="round" stroke-linejoin="round" stroke-miterlimit="10" x1="36.9" y1="-152" x2="49.8" y2="-160.4"/>
	</g>
	
		<polyline fill="none" stroke="#2196F3" stroke-width="2" stroke-linecap="round" stroke-linejoin="round" stroke-miterlimit="10" points="
		49.7,-160.4 49.7,-160.3 57.7,-158.2 	"/>
	<circle fill="none" stroke="#2196F3" stroke-width="1.5" stroke-miterlimit="10" cx="60.5" cy="-157.4" r="2.1"/>
	
		<polyline fill="none" stroke="#2196F3" stroke-width="2" stroke-linecap="round" stroke-linejoin="round" stroke-miterlimit="10" points="
		36.9,-164.9 36.9,-151.9 55.4,-147 	"/>
	<circle fill="none" stroke="#2196F3" stroke-width="1.5" stroke-miterlimit="10" cx="57.8" cy="-146.2" r="2.1"/>
	
		<polyline fill="none" stroke="#2196F3" stroke-width="2" stroke-linecap="round" stroke-linejoin="round" stroke-miterlimit="10" points="
		43.1,-162.4 43.1,-156.2 51,-154.2 	"/>
	<circle fill="none" stroke="#2196F3" stroke-width="1.5" stroke-miterlimit="10" cx="53.4" cy="-153.2" r="2.1"/>
</g>
<g>
	<g>
		<path fill="#FFFFFF" stroke="#6B6966" stroke-linecap="round" stroke-linejoin="round" stroke-miterlimit="10" d="M-259.7,15.1
			l-15.6-9.9c-0.5-0.3-0.5-1,0-1.3l15.6-9.9c0.3-0.2,0.6-0.2,0.8,0l15.6,9.9c0.5,0.3,0.5,1,0,1.3l-15.6,9.9
			C-259.2,15.3-259.5,15.3-259.7,15.1z"/>
		<polygon fill="#FFFFFF" stroke="#6B6966" stroke-linecap="round" stroke-linejoin="round" stroke-miterlimit="10" points="
			-259.3,33.5 -275.6,22.9 -275.6,4.8 -259.3,15.4 		"/>
		<polygon fill="#FFFFFF" stroke="#6B6966" stroke-linecap="round" stroke-linejoin="round" stroke-miterlimit="10" points="
			-259.3,33.5 -243,22.9 -243,4.8 -259.3,15.4 		"/>
	</g>
	<g>
		<path fill="#FFFFFF" stroke="#6B6966" stroke-linecap="round" stroke-linejoin="round" stroke-miterlimit="10" d="M-275.7,4
			l-5.4-3.4c-0.2-0.1-0.2-0.3,0-0.4l5.4-3.4c0.1-0.1,0.2-0.1,0.3,0l5.4,3.4c0.2,0.1,0.2,0.3,0,0.4l-5.4,3.4
			C-275.5,4.1-275.7,4.1-275.7,4z"/>
		<polygon fill="#FFFFFF" stroke="#6B6966" stroke-linecap="round" stroke-linejoin="round" stroke-miterlimit="10" points="
			-275.6,10.3 -281.2,6.7 -281.2,0.5 -275.6,4.1 		"/>
		<polygon fill="#FFFFFF" stroke="#6B6966" stroke-linecap="round" stroke-linejoin="round" stroke-miterlimit="10" points="
			-275.6,10.3 -270,6.7 -270,0.5 -275.6,4.1 		"/>
	</g>
	<g>
		<path fill="#FFFFFF" stroke="#6B6966" stroke-linecap="round" stroke-linejoin="round" stroke-miterlimit="10" d="M-259.5-5.3
			l-5.4-3.4c-0.2-0.1-0.2-0.3,0-0.4l5.4-3.4c0.1-0.1,0.2-0.1,0.3,0l5.4,3.4c0.2,0.1,0.2,0.3,0,0.4l-5.4,3.4
			C-259.3-5.2-259.4-5.2-259.5-5.3z"/>
		<polygon fill="#FFFFFF" stroke="#6B6966" stroke-linecap="round" stroke-linejoin="round" stroke-miterlimit="10" points="
			-259.3,1.1 -265,-2.6 -265,-8.8 -259.3,-5.2 		"/>
		<polygon fill="#FFFFFF" stroke="#6B6966" stroke-linecap="round" stroke-linejoin="round" stroke-miterlimit="10" points="
			-259.3,1.1 -253.7,-2.6 -253.7,-8.8 -259.3,-5.2 		"/>
	</g>
	<g>
		<path fill="#FFFFFF" stroke="#6B6966" stroke-linecap="round" stroke-linejoin="round" stroke-miterlimit="10" d="M-243.2,3.9
			l-5.4-3.4c-0.2-0.1-0.2-0.3,0-0.4l5.4-3.4c0.1-0.1,0.2-0.1,0.3,0l5.4,3.4c0.2,0.1,0.2,0.3,0,0.4l-5.4,3.4
			C-243,4-243.2,4-243.2,3.9z"/>
		<polygon fill="#FFFFFF" stroke="#6B6966" stroke-linecap="round" stroke-linejoin="round" stroke-miterlimit="10" points="
			-243.1,10.2 -248.7,6.6 -248.7,0.4 -243.1,4 		"/>
		<polygon fill="#FFFFFF" stroke="#6B6966" stroke-linecap="round" stroke-linejoin="round" stroke-miterlimit="10" points="
			-243.1,10.2 -237.5,6.6 -237.5,0.4 -243.1,4 		"/>
	</g>
	<g>
		<path fill="#FFFFFF" stroke="#6B6966" stroke-linecap="round" stroke-linejoin="round" stroke-miterlimit="10" d="M-259.5,15.2
			l-5.4-3.4c-0.2-0.1-0.2-0.3,0-0.4l5.4-3.4c0.1-0.1,0.2-0.1,0.3,0l5.4,3.4c0.2,0.1,0.2,0.3,0,0.4l-5.4,3.4
			C-259.3,15.3-259.4,15.3-259.5,15.2z"/>
		<polygon fill="#FFFFFF" stroke="#6B6966" stroke-linecap="round" stroke-linejoin="round" stroke-miterlimit="10" points="
			-259.3,21.5 -265,17.9 -265,11.7 -259.3,15.3 		"/>
		<polygon fill="#FFFFFF" stroke="#6B6966" stroke-linecap="round" stroke-linejoin="round" stroke-miterlimit="10" points="
			-259.3,21.5 -253.7,17.9 -253.7,11.7 -259.3,15.3 		"/>
	</g>
	<g>
		<path fill="#FFFFFF" stroke="#6B6966" stroke-linecap="round" stroke-linejoin="round" stroke-miterlimit="10" d="M-275.7,23.8
			l-5.4-3.4c-0.2-0.1-0.2-0.3,0-0.4l5.4-3.4c0.1-0.1,0.2-0.1,0.3,0l5.4,3.4c0.2,0.1,0.2,0.3,0,0.4l-5.4,3.4
			C-275.5,23.8-275.7,23.8-275.7,23.8z"/>
		<polygon fill="#FFFFFF" stroke="#6B6966" stroke-linecap="round" stroke-linejoin="round" stroke-miterlimit="10" points="
			-275.6,30.1 -281.2,26.5 -281.2,20.2 -275.6,23.9 		"/>
		<polygon fill="#FFFFFF" stroke="#6B6966" stroke-linecap="round" stroke-linejoin="round" stroke-miterlimit="10" points="
			-275.6,30.1 -270,26.5 -270,20.2 -275.6,23.9 		"/>
	</g>
	<g>
		<path fill="#FFFFFF" stroke="#6B6966" stroke-linecap="round" stroke-linejoin="round" stroke-miterlimit="10" d="M-243.2,24
			l-5.4-3.4c-0.2-0.1-0.2-0.3,0-0.4l5.4-3.4c0.1-0.1,0.2-0.1,0.3,0l5.4,3.4c0.2,0.1,0.2,0.3,0,0.4L-243,24
			C-243,24-243.2,24-243.2,24z"/>
		<polygon fill="#FFFFFF" stroke="#6B6966" stroke-linecap="round" stroke-linejoin="round" stroke-miterlimit="10" points="
			-243.1,30.3 -248.7,26.6 -248.7,20.4 -243.1,24.1 		"/>
		<polygon fill="#FFFFFF" stroke="#6B6966" stroke-linecap="round" stroke-linejoin="round" stroke-miterlimit="10" points="
			-243.1,30.3 -237.5,26.6 -237.5,20.4 -243.1,24.1 		"/>
	</g>
	<g>
		<path fill="#FFFFFF" stroke="#6B6966" stroke-linecap="round" stroke-linejoin="round" stroke-miterlimit="10" d="M-259.5,33.3
			l-5.4-3.4c-0.2-0.1-0.2-0.3,0-0.4l5.4-3.4c0.1-0.1,0.2-0.1,0.3,0l5.4,3.4c0.2,0.1,0.2,0.3,0,0.4l-5.4,3.4
			C-259.3,33.3-259.4,33.3-259.5,33.3z"/>
		<polygon fill="#FFFFFF" stroke="#6B6966" stroke-linecap="round" stroke-linejoin="round" stroke-miterlimit="10" points="
			-259.3,39.6 -265,36 -265,29.7 -259.3,33.4 		"/>
		<polygon fill="#FFFFFF" stroke="#6B6966" stroke-linecap="round" stroke-linejoin="round" stroke-miterlimit="10" points="
			-259.3,39.6 -253.7,36 -253.7,29.7 -259.3,33.4 		"/>
	</g>
</g>
<g>
	<path fill="none" stroke="#2196F3" stroke-width="2" stroke-linecap="round" stroke-linejoin="round" stroke-miterlimit="10" d="
		M-81-159.7l-10.6-6.8c-0.3-0.2-0.3-0.7,0-0.9l10.6-6.8c0.2-0.1,0.4-0.1,0.6,0l10.6,6.8c0.3,0.2,0.3,0.7,0,0.9l-10.6,6.8
		C-80.7-159.6-80.9-159.6-81-159.7z"/>
	
		<polygon fill="none" stroke="#2196F3" stroke-width="2" stroke-linecap="round" stroke-linejoin="round" stroke-miterlimit="10" points="
		-80.8,-147.2 -91.9,-154.4 -91.9,-166.7 -80.8,-159.5 	"/>
	
		<polygon fill="none" stroke="#2196F3" stroke-width="2" stroke-linecap="round" stroke-linejoin="round" stroke-miterlimit="10" points="
		-80.8,-147.2 -69.6,-154.4 -69.6,-166.7 -80.8,-159.5 	"/>
</g>
<path fill="none" stroke="#757575" stroke-width="2" stroke-linecap="round" stroke-linejoin="round" stroke-miterlimit="10" d="
	M111.9-169.8c4.4,4.4,16.6,18.6,4.1,28.1c-0.8,0.6-1.8,0.9-2.8,0.9c-3.3,0-11.3,0-14.5,0c-1,0-1.9-0.3-2.7-0.8
	c-3.7-2.6-13-11.6,3.2-28.2c0.9-0.9,2.1-1.4,3.4-1.4h5.9C109.8-171.2,111-170.7,111.9-169.8z"/>
<path fill="none" stroke="#757575" stroke-width="2" stroke-linecap="round" stroke-linejoin="round" stroke-miterlimit="10" d="
	M99.9-175.2c0,0-1.7-2-1.7-2c-0.6-0.6-0.7-1.6,0.1-2.1c0.8-0.6,1.8-0.1,2.7,0c0.5,0.1,1,0,1.4-0.3c0.5-0.3,0.7-0.8,1.1-1.1
	c0.5-0.4,1.2-0.7,1.9-0.7c0.9,0,1.6,0.7,2.2,1.3c0.4,0.4,1,0.7,1.7,0.8c0.6,0,1.3-0.2,1.9-0.3c0,0,0,0,0.1,0
	c1.6-0.2,2.5,1.1,1.4,2.4l-1.5,2c-0.3,0.4-0.8,0.7-1.3,0.7h-8.7C100.7-174.6,100.2-174.9,99.9-175.2z"/>
<g>
	<path fill="#2196F3" d="M104.5-146v-2.2c-1.4,0-2.8-0.5-3.6-1l0.6-2.1c0.9,0.5,2.1,1,3.5,1c1.4,0,2.4-0.7,2.4-1.8
		c0-1-0.8-1.7-2.5-2.3c-2.4-0.9-3.9-1.9-3.9-4c0-1.9,1.4-3.4,3.6-3.8v-2.2h1.8v2.1c1.4,0,2.4,0.4,3.1,0.7l-0.6,2.1
		c-0.5-0.2-1.5-0.8-3.1-0.8c-1.6,0-2.1,0.8-2.1,1.6c0,0.9,0.8,1.4,2.7,2.2c2.5,0.9,3.6,2.2,3.6,4.2c0,1.9-1.3,3.6-3.8,4v2.3H104.5z"
		/>
</g>
<path fill="none" stroke="#757575" stroke-width="2" stroke-linecap="round" stroke-linejoin="round" stroke-miterlimit="10" d="
	M110-171.2h-9.1c-0.9,0-1.7-0.8-1.7-1.7l0,0c0-0.9,0.8-1.7,1.7-1.7h9.1c0.9,0,1.7,0.8,1.7,1.7l0,0C111.7-172,111-171.2,110-171.2z"
	/>
<g>
	<path fill="#2196F3" d="M213.6-162.8v-1.5c-1,0-1.9-0.3-2.5-0.7l0.4-1.4c0.6,0.3,1.4,0.7,2.4,0.7c1,0,1.6-0.5,1.6-1.2
		c0-0.7-0.5-1.1-1.7-1.5c-1.6-0.6-2.6-1.3-2.6-2.7c0-1.3,0.9-2.3,2.4-2.6v-1.5h1.2v1.4c1,0,1.6,0.3,2.1,0.5l-0.4,1.4
		c-0.4-0.2-1-0.5-2.1-0.5c-1.1,0-1.4,0.5-1.4,1.1c0,0.6,0.5,1,1.8,1.5c1.7,0.6,2.5,1.5,2.5,2.8c0,1.3-0.9,2.4-2.6,2.7v1.6H213.6z"/>
</g>
<circle fill="none" stroke="#757575" stroke-width="2" stroke-linecap="round" stroke-linejoin="round" stroke-miterlimit="10" cx="214" cy="-169" r="9.7"/>
<path fill="none" stroke="#757575" stroke-width="2" stroke-linecap="round" stroke-linejoin="round" stroke-miterlimit="10" d="
	M210.4-148.4h6.3c1.3,0,2.3-1,2.3-2.3l0,0c0-1.3-1-2.3-2.3-2.3h-6.6c-0.6,0-1.2-0.1-1.8-0.4c-1.5-0.6-4.9-1.4-8,1l-5,4.4"/>
<path fill="none" stroke="#757575" stroke-width="2" stroke-linecap="round" stroke-linejoin="round" stroke-miterlimit="10" d="
	M222.9-152.9l5.5-3c1.2-0.6,2.6-0.1,3.2,1l0,0c0.6,1.2,0.1,2.6-1,3.2l-14.5,8.1h-13l-3.7,2.8"/>
<g>
	<defs>
		<circle id="SVGID_1_" cx="313.7" cy="-160.4" r="16.2"/>
	</defs>
	<clipPath id="SVGID_2_">
		<use xlink:href="#SVGID_1_"  overflow="visible"/>
	</clipPath>
	
		<circle clip-path="url(#SVGID_2_)" fill="none" stroke="#757575" stroke-width="2" stroke-linecap="round" stroke-linejoin="round" stroke-miterlimit="10" cx="313.7" cy="-160.3" r="15.5"/>
	
		<circle clip-path="url(#SVGID_2_)" fill="none" stroke="#757575" stroke-width="2" stroke-linecap="round" stroke-linejoin="round" stroke-miterlimit="10" cx="313.7" cy="-181.4" r="15.5"/>
	
		<circle clip-path="url(#SVGID_2_)" fill="none" stroke="#757575" stroke-width="2" stroke-linecap="round" stroke-linejoin="round" stroke-miterlimit="10" cx="313.7" cy="-139.2" r="15.5"/>
	
		<ellipse clip-path="url(#SVGID_2_)" fill="none" stroke="#757575" stroke-width="2" stroke-linecap="round" stroke-linejoin="round" stroke-miterlimit="10" cx="313.7" cy="-160.2" rx="7" ry="15.5"/>
	
		<line clip-path="url(#SVGID_2_)" fill="none" stroke="#757575" stroke-width="2" stroke-linecap="round" stroke-linejoin="round" stroke-miterlimit="10" x1="296.9" y1="-160.4" x2="330.5" y2="-160.4"/>
	
		<line clip-path="url(#SVGID_2_)" fill="none" stroke="#757575" stroke-width="2" stroke-linecap="round" stroke-linejoin="round" stroke-miterlimit="10" x1="313.7" y1="-177.5" x2="313.7" y2="-143.2"/>
</g>
<g>
	<defs>
		<circle id="SVGID_3_" cx="160.5" cy="-161.3" r="18.9"/>
	</defs>
	<clipPath id="SVGID_4_">
		<use xlink:href="#SVGID_3_"  overflow="visible"/>
	</clipPath>
	
		<circle clip-path="url(#SVGID_4_)" fill="none" stroke="#757575" stroke-width="2" stroke-linecap="round" stroke-linejoin="round" stroke-miterlimit="10" cx="160.5" cy="-161.2" r="18.1"/>
	
		<circle display="none" clip-path="url(#SVGID_4_)" fill="none" stroke="#757575" stroke-width="2" stroke-linecap="round" stroke-linejoin="round" stroke-miterlimit="10" cx="160.5" cy="-185.7" r="18.1"/>
	
		<circle display="none" clip-path="url(#SVGID_4_)" fill="none" stroke="#757575" stroke-width="2" stroke-linecap="round" stroke-linejoin="round" stroke-miterlimit="10" cx="160.5" cy="-136.6" r="18.1"/>
	
		<ellipse clip-path="url(#SVGID_4_)" fill="none" stroke="#757575" stroke-width="2" stroke-linecap="round" stroke-linejoin="round" stroke-miterlimit="10" cx="160.4" cy="-161.1" rx="8.1" ry="18.1"/>
</g>
<g>
	
		<polyline fill="none" stroke="#757575" stroke-width="2" stroke-linecap="round" stroke-linejoin="round" stroke-miterlimit="10" points="
		183.1,-180.4 183.1,-169.8 137.6,-169.8 137.6,-180.4 	"/>
	<circle fill="none" stroke="#2196F3" stroke-width="1.5" stroke-miterlimit="10" cx="137.6" cy="-183.2" r="2.5"/>
	<circle fill="none" stroke="#2196F3" stroke-width="1.5" stroke-miterlimit="10" cx="183.2" cy="-183.2" r="2.5"/>
</g>
<g>
	
		<line fill="none" stroke="#757575" stroke-width="2" stroke-linecap="round" stroke-linejoin="round" stroke-miterlimit="10" x1="160.4" y1="-184.3" x2="160.4" y2="-138.2"/>
	<circle fill="none" stroke="#2196F3" stroke-width="1.5" stroke-miterlimit="10" cx="160.4" cy="-187.1" r="2.5"/>
	<circle fill="none" stroke="#2196F3" stroke-width="1.5" stroke-miterlimit="10" cx="160.4" cy="-135.5" r="2.5"/>
</g>
<g>
	
		<line fill="none" stroke="#757575" stroke-width="2" stroke-linecap="round" stroke-linejoin="round" stroke-miterlimit="10" x1="137.4" y1="-161.3" x2="183.4" y2="-161.3"/>
	<circle fill="none" stroke="#2196F3" stroke-width="1.5" stroke-miterlimit="10" cx="134.6" cy="-161.3" r="2.5"/>
	<circle fill="none" stroke="#2196F3" stroke-width="1.5" stroke-miterlimit="10" cx="186.3" cy="-161.3" r="2.5"/>
</g>
<g>
	
		<polyline fill="none" stroke="#757575" stroke-width="2" stroke-linecap="round" stroke-linejoin="round" stroke-miterlimit="10" points="
		183.1,-142.4 183.1,-153 137.6,-153 137.6,-142.4 	"/>
	<circle fill="none" stroke="#2196F3" stroke-width="1.5" stroke-miterlimit="10" cx="137.6" cy="-139.6" r="2.5"/>
	<circle fill="none" stroke="#2196F3" stroke-width="1.5" stroke-miterlimit="10" cx="183.1" cy="-139.6" r="2.5"/>
</g>
<g>
	
		<line fill="none" stroke="#757575" stroke-width="2" stroke-linecap="round" stroke-linejoin="round" stroke-miterlimit="10" x1="124.7" y1="7" x2="124.7" y2="8.5"/>
	
		<line fill="none" stroke="#757575" stroke-width="2" stroke-linecap="round" stroke-linejoin="round" stroke-miterlimit="10" x1="128.1" y1="7" x2="128.1" y2="8.5"/>
	
		<line fill="none" stroke="#757575" stroke-width="2" stroke-linecap="round" stroke-linejoin="round" stroke-miterlimit="10" x1="124.7" y1="18.6" x2="124.7" y2="20.2"/>
	
		<line fill="none" stroke="#757575" stroke-width="2" stroke-linecap="round" stroke-linejoin="round" stroke-miterlimit="10" x1="128.1" y1="18.6" x2="128.1" y2="20.2"/>
	<path fill="none" stroke="#757575" stroke-width="2" stroke-linecap="round" stroke-linejoin="round" stroke-miterlimit="10" d="
		M129.2,13.7h-4.5V8.8h4.5c1.3,0,2.4,1.1,2.4,2.4v0C131.6,12.6,130.5,13.7,129.2,13.7z"/>
	<path fill="none" stroke="#757575" stroke-width="2" stroke-linecap="round" stroke-linejoin="round" stroke-miterlimit="10" d="
		M129.2,18.5h-4.5v-4.9h4.5c1.3,0,2.4,1.1,2.4,2.4v0C131.6,17.4,130.5,18.5,129.2,18.5z"/>
	
		<line fill="none" stroke="#757575" stroke-width="2" stroke-linecap="round" stroke-linejoin="round" stroke-miterlimit="10" x1="124.4" y1="8.8" x2="122.8" y2="8.8"/>
	
		<line fill="none" stroke="#757575" stroke-width="2" stroke-linecap="round" stroke-linejoin="round" stroke-miterlimit="10" x1="124.4" y1="18.4" x2="122.8" y2="18.4"/>
</g>
<circle fill="none" stroke="#757575" stroke-width="2" stroke-linecap="round" stroke-linejoin="round" stroke-miterlimit="10" cx="274" cy="-152.7" r="9.6"/>
<g>
	<path fill="none" d="M257.4-158.1c1.4-0.5,2.9-0.8,4.5-0.9v-3.7H257C257-161,257.2-159.5,257.4-158.1z"/>
	<path fill="none" d="M258.4-149.8c-1-1.4-1.8-3.3-2.4-5.5c-1.1,0.6-2.1,1.4-3,2.2C254.5-151.6,256.3-150.5,258.4-149.8z"/>
	<path fill="none" d="M270.3-169.9c0.3,1.4,0.5,2.8,0.5,4.4c1-0.2,1.9-0.4,3-0.4c1.2,0,2.4,0.2,3.6,0.5c-0.3-2.7-1.4-5.3-3.1-7.3
		C273.1-171.5,271.7-170.6,270.3-169.9z"/>
	<path fill="none" d="M257.4-169.1c-0.2,1.4-0.4,2.8-0.5,4.4h4.9v-3.5C260.3-168.3,258.8-168.6,257.4-169.1z"/>
	<path fill="none" d="M261.9-177.8c-1.6,0.7-3.1,3.2-4,6.7c1.3,0.5,2.6,0.8,4,0.9V-177.8z"/>
	<path fill="none" d="M263.9-161.2c0.4-0.5,0.9-1,1.4-1.4h-1.4V-161.2z"/>
	<path fill="none" d="M261.4-149.5c-0.3-1.1-0.5-2.3-0.5-3.5c0-1.4,0.2-2.7,0.6-4c-1.3,0.1-2.5,0.4-3.7,0.9
		C258.6-152.9,260-150.5,261.4-149.5z"/>
	<path fill="none" d="M263.9-168.2v3.5h4.5c0.1-0.1,0.3-0.1,0.4-0.2c-0.1-1.5-0.2-2.9-0.5-4.2C267-168.6,265.5-168.3,263.9-168.2z"
		/>
	<path fill="none" d="M255.5-169.9c-1.5-0.7-2.8-1.7-4-2.8c-1.8,2.2-2.9,5-3.1,8h6.5C255-166.5,255.2-168.3,255.5-169.9z"/>
	<path fill="none" d="M255.5-157.3c-0.3-1.7-0.5-3.5-0.5-5.4h-6.5c0.2,3.1,1.3,5.9,3.2,8.2C252.7-155.6,254.1-156.5,255.5-157.3z"/>
	<path fill="none" d="M256-171.9c0.6-2.3,1.5-4.2,2.6-5.6c-2.1,0.7-4.1,1.8-5.7,3.3C253.9-173.2,254.9-172.5,256-171.9z"/>
	<path fill="none" d="M263.9-177.8v7.6c1.4-0.1,2.8-0.4,4-0.9C267-174.6,265.5-177,263.9-177.8z"/>
	<path fill="none" d="M267.2-177.5c1.1,1.4,2,3.3,2.6,5.6c1.1-0.6,2.2-1.4,3.1-2.3C271.3-175.6,269.3-176.8,267.2-177.5z"/>
	<path fill="#757575" d="M261.4-149.5c-1.4-1-2.7-3.3-3.6-6.6c1.2-0.4,2.4-0.7,3.7-0.9c0.5-1.6,1.3-3,2.4-4.3v-1.4h1.4
		c0.9-0.8,2-1.5,3.1-2h-4.5v-3.5c1.6-0.1,3.1-0.4,4.5-0.9c0.2,1.3,0.4,2.7,0.5,4.2c0.6-0.3,1.3-0.5,2-0.6c-0.1-1.5-0.3-3-0.5-4.4
		c1.5-0.7,2.8-1.7,4-2.8c1.7,2.1,2.7,4.6,3.1,7.3c0.6,0.2,1.2,0.4,1.7,0.6c-0.5-8.5-7.5-15.1-16.1-15.1c-8.9,0-16.2,7.2-16.2,16.2
		c0,8.7,6.8,15.7,15.4,16.1C261.8-148.2,261.6-148.8,261.4-149.5z M258.4-149.8c-2.1-0.7-3.9-1.8-5.4-3.3c0.9-0.9,1.9-1.6,3-2.2
		C256.6-153.1,257.4-151.2,258.4-149.8z M261.9-159c-1.6,0.1-3.1,0.4-4.5,0.9c-0.2-1.4-0.4-3-0.4-4.6h4.9V-159z M257-164.7
		c0.1-1.6,0.2-3.1,0.5-4.4c1.4,0.5,2.9,0.8,4.5,0.9v3.5H257z M261.9-177.8v7.6c-1.4-0.1-2.8-0.4-4-0.9
		C258.8-174.6,260.3-177,261.9-177.8z M256-171.9c-1.1-0.6-2.2-1.4-3.1-2.2c1.6-1.5,3.5-2.7,5.7-3.3
		C257.5-176.1,256.7-174.2,256-171.9z M263.9-170.2v-7.6c1.6,0.7,3.1,3.2,4,6.7C266.7-170.6,265.3-170.3,263.9-170.2z M267.2-177.5
		c2.2,0.7,4.1,1.8,5.7,3.3c-0.9,0.9-2,1.6-3.1,2.3C269.1-174.2,268.2-176.1,267.2-177.5z M251.6-172.7c1.2,1.1,2.5,2,4,2.8
		c-0.3,1.6-0.5,3.4-0.6,5.2h-6.5C248.7-167.7,249.8-170.4,251.6-172.7z M255-162.7c0,1.9,0.2,3.7,0.5,5.4c-1.4,0.7-2.8,1.7-3.9,2.8
		c-1.8-2.3-3-5.1-3.2-8.2H255z"/>
</g>
<g>
	
		<line fill="none" stroke="#2196F3" stroke-width="1.5" stroke-linecap="round" stroke-linejoin="round" stroke-miterlimit="10" x1="272.3" y1="-158" x2="272.3" y2="-156.8"/>
	
		<line fill="none" stroke="#2196F3" stroke-width="1.5" stroke-linecap="round" stroke-linejoin="round" stroke-miterlimit="10" x1="275" y1="-158" x2="275" y2="-156.8"/>
	
		<line fill="none" stroke="#2196F3" stroke-width="1.5" stroke-linecap="round" stroke-linejoin="round" stroke-miterlimit="10" x1="272.3" y1="-149" x2="272.3" y2="-147.8"/>
	
		<line fill="none" stroke="#2196F3" stroke-width="1.5" stroke-linecap="round" stroke-linejoin="round" stroke-miterlimit="10" x1="275" y1="-149" x2="275" y2="-147.8"/>
	<path fill="none" stroke="#2196F3" stroke-width="1.5" stroke-linecap="round" stroke-linejoin="round" stroke-miterlimit="10" d="
		M275.8-152.8h-3.5v-3.8h3.5c1,0,1.9,0.8,1.9,1.9v0C277.7-153.7,276.9-152.8,275.8-152.8z"/>
	<path fill="none" stroke="#2196F3" stroke-width="1.5" stroke-linecap="round" stroke-linejoin="round" stroke-miterlimit="10" d="
		M275.8-149.1h-3.5v-3.8h3.5c1,0,1.9,0.8,1.9,1.9l0,0C277.7-150,276.9-149.1,275.8-149.1z"/>
	
		<line fill="none" stroke="#2196F3" stroke-width="1.5" stroke-linecap="round" stroke-linejoin="round" stroke-miterlimit="10" x1="272.1" y1="-156.6" x2="270.9" y2="-156.6"/>
	
		<line fill="none" stroke="#2196F3" stroke-width="1.5" stroke-linecap="round" stroke-linejoin="round" stroke-miterlimit="10" x1="272.1" y1="-149.2" x2="270.9" y2="-149.2"/>
</g>
<g>
	
		<polygon fill="none" stroke="#ACACAC" stroke-width="2" stroke-linecap="round" stroke-linejoin="round" stroke-miterlimit="10" points="
		362.7,-149 356.5,-149.3 353.9,-154.9 357.3,-160.1 366.2,-154.2 	"/>
	
		<line fill="none" stroke="#ACACAC" stroke-width="2" stroke-linecap="round" stroke-linejoin="round" stroke-miterlimit="10" x1="368.7" y1="-167.2" x2="362.2" y2="-157.9"/>
	<path fill="none" stroke="#ACACAC" stroke-width="2" stroke-linecap="round" stroke-linejoin="round" stroke-miterlimit="10" d="
		M373.8-168.5c-1.1,1.7-3.4,2.2-5.1,1s-2.2-3.4-1-5.1L373.8-168.5z"/>
</g>
<polyline fill="none" stroke="#ACACAC" stroke-width="2" stroke-linecap="round" stroke-linejoin="round" stroke-miterlimit="10" points="
	345.7,-154 349.9,-152.7 353.3,-145.2 362.5,-145.2 366.1,-142.6 "/>
<polyline fill="none" stroke="#ACACAC" stroke-linecap="round" stroke-linejoin="round" stroke-miterlimit="10" points="
	362.8,-153.5 361.4,-151.4 358.7,-151.6 "/>
<line fill="none" stroke="#AFAEAE" stroke-width="1.5" stroke-linecap="round" stroke-linejoin="round" stroke-miterlimit="10" x1="60.3" y1="-70.8" x2="43.6" y2="-70.8"/>
<path fill="none" stroke="#AFAEAE" stroke-width="1.5" stroke-miterlimit="10" d="M60.8-68.7v-4.7c0-0.7,0.7-1.1,1.3-0.7l4,2.3
	c0.6,0.3,0.6,1.1,0,1.5l-4,2.3C61.5-67.6,60.8-68,60.8-68.7z"/>
<circle fill="none" stroke="#AFAEAE" stroke-width="1.5" stroke-miterlimit="10" cx="41.4" cy="-70.8" r="2.1"/>
<circle fill="none" stroke="#AFAEAE" stroke-width="1.5" stroke-miterlimit="10" cx="41.4" cy="-59.9" r="2.1"/>
<line fill="none" stroke="#AFAEAE" stroke-width="1.5" stroke-linecap="round" stroke-linejoin="round" stroke-miterlimit="10" x1="52.5" y1="-70.5" x2="43.1" y2="-61.1"/>
<line fill="none" stroke="#AFAEAE" stroke-width="1.5" stroke-linecap="round" stroke-linejoin="round" stroke-miterlimit="10" x1="93.6" y1="-47" x2="78.5" y2="-47"/>
<path fill="none" stroke="#AFAEAE" stroke-width="1.5" stroke-miterlimit="10" d="M94.1-44.9v-4.7c0-0.7,0.7-1.1,1.3-0.7l4,2.3
	c0.6,0.3,0.6,1.1,0,1.5l-4,2.3C94.8-43.8,94.1-44.3,94.1-44.9z"/>
<g>
	<path fill="none" stroke="#AFAEAE" stroke-width="1.5" stroke-miterlimit="10" d="M75.1-42c-0.5,0.4-0.9,1-0.9,1.7
		c0,1.2,1,2.1,2.1,2.1c1.2,0,2.1-1,2.1-2.1c0-0.7-0.3-1.3-0.9-1.7c-0.4,0.3-0.8,0.4-1.3,0.4S75.4-41.8,75.1-42z"/>
	<path fill="none" stroke="#AFAEAE" stroke-width="1.5" stroke-miterlimit="10" d="M77.6-42c0.5-0.4,0.9-1,0.9-1.7
		c0-0.7-0.3-1.2-0.8-1.6c-0.4,0.3-0.8,0.5-1.4,0.5c-0.5,0-1-0.2-1.4-0.5c-0.5,0.4-0.8,1-0.8,1.6c0,0.7,0.3,1.3,0.9,1.7"/>
	<path fill="none" stroke="#AFAEAE" stroke-width="1.5" stroke-miterlimit="10" d="M77.7-45.4c0.5-0.4,0.8-1,0.8-1.6
		c0-1.2-1-2.1-2.1-2.1c-1.2,0-2.1,1-2.1,2.1c0,0.7,0.3,1.2,0.8,1.6"/>
</g>
<polyline fill="none" stroke="#AFAEAE" stroke-width="1.5" stroke-linecap="round" stroke-linejoin="round" stroke-miterlimit="10" points="
	78.8,-40.6 87.1,-46.7 78.5,-44 "/>
<line fill="none" stroke="#AFAEAE" stroke-width="1.5" stroke-linecap="round" stroke-linejoin="round" stroke-miterlimit="10" x1="24.4" y1="-88.6" x2="9.2" y2="-88.6"/>
<path fill="none" stroke="#AFAEAE" stroke-width="1.5" stroke-miterlimit="10" d="M24.9-86.6v-4.7c0-0.7,0.7-1.1,1.3-0.7l4,2.3
	c0.6,0.3,0.6,1.1,0,1.5l-4,2.3C25.6-85.5,24.9-85.9,24.9-86.6z"/>
<g>
	<path fill="none" stroke="#AFAEAE" stroke-width="1.5" stroke-miterlimit="10" d="M7.1-83.8c1.2,0,2.1-1,2.1-2.1
		c0-0.5-0.2-1-0.5-1.3c-0.4,0.5-1,0.8-1.6,0.8c-0.7,0-1.3-0.3-1.6-0.8C5.2-86.9,5-86.5,5-86C5-84.8,5.9-83.8,7.1-83.8z"/>
	<path fill="none" stroke="#AFAEAE" stroke-width="1.5" stroke-miterlimit="10" d="M8.7-87.3c0.3-0.4,0.5-0.8,0.5-1.3
		c0-1.2-1-2.1-2.1-2.1c-1.2,0-2.1,1-2.1,2.1c0,0.5,0.2,1,0.5,1.3"/>
</g>
<line fill="none" stroke="#AFAEAE" stroke-width="1.5" stroke-linecap="round" stroke-linejoin="round" stroke-miterlimit="10" x1="24.4" y1="-74.3" x2="9.2" y2="-74.3"/>
<line fill="none" stroke="#AFAEAE" stroke-width="1.5" stroke-linecap="round" stroke-linejoin="round" stroke-miterlimit="10" x1="24.4" y1="-71.8" x2="9.2" y2="-71.8"/>
<g>
	<path fill="none" stroke="#AFAEAE" stroke-width="1.5" stroke-miterlimit="10" d="M7.1-69.5c1.2,0,2.1-1,2.1-2.1
		c0-0.5-0.2-1-0.5-1.3c-0.4,0.5-1,0.8-1.6,0.8c-0.7,0-1.3-0.3-1.6-0.8C5.2-72.6,5-72.1,5-71.6C5-70.4,5.9-69.5,7.1-69.5z"/>
	<path fill="none" stroke="#AFAEAE" stroke-width="1.5" stroke-miterlimit="10" d="M8.7-72.9c0.3-0.4,0.5-0.8,0.5-1.3
		c0-1.2-1-2.1-2.1-2.1c-1.2,0-2.1,1-2.1,2.1c0,0.5,0.2,1,0.5,1.3"/>
</g>
<line fill="none" stroke="#AFAEAE" stroke-width="1.5" stroke-linecap="round" stroke-linejoin="round" stroke-miterlimit="10" x1="-7" y1="-78.4" x2="-22.1" y2="-78.4"/>
<line fill="none" stroke="#AFAEAE" stroke-width="1.5" stroke-linecap="round" stroke-linejoin="round" stroke-miterlimit="10" x1="-7" y1="-75.1" x2="-22.1" y2="-75.1"/>
<line fill="none" stroke="#AFAEAE" stroke-width="1.5" stroke-linecap="round" stroke-linejoin="round" stroke-miterlimit="10" x1="-7" y1="-71.7" x2="-22.1" y2="-71.7"/>
<g>
	<path fill="none" stroke="#AFAEAE" stroke-width="1.5" stroke-miterlimit="10" d="M-6.5-72.8v3.4c0,0.7,0.7,1.1,1.3,0.7l4-2.3
		c0.6-0.3,0.6-1.1,0-1.5l-1.7-1L-5.2-72C-5.7-71.7-6.5-72.1-6.5-72.8z"/>
	<path fill="none" stroke="#AFAEAE" stroke-width="1.5" stroke-miterlimit="10" d="M-2.8-73.4l1.7-1c0.6-0.3,0.6-1.1,0-1.5L-3-76.9
		l-2.2,1.3c-0.6,0.3-1.3-0.1-1.3-0.7v2.4"/>
	<path fill="none" stroke="#AFAEAE" stroke-width="1.5" stroke-miterlimit="10" d="M-6.5-74v1.2c0,0.7,0.7,1.1,1.3,0.7l2.3-1.4"/>
	<path fill="none" stroke="#AFAEAE" stroke-width="1.5" stroke-miterlimit="10" d="M-3-76.9l1.8-1.1c0.6-0.3,0.6-1.1,0-1.5l-4-2.3
		c-0.6-0.3-1.3,0.1-1.3,0.7v3.6"/>
	<path fill="none" stroke="#AFAEAE" stroke-width="1.5" stroke-miterlimit="10" d="M-6.5-77.4v1.1c0,0.7,0.7,1.1,1.3,0.7l2.2-1.3"/>
</g>
<g>
	<path fill="none" stroke="#AFAEAE" stroke-width="1.5" stroke-miterlimit="10" d="M-25.5-73.3c-0.5,0.4-0.9,1-0.9,1.7
		c0,1.2,1,2.1,2.1,2.1c1.2,0,2.1-1,2.1-2.1c0-0.7-0.4-1.3-0.9-1.7c-0.3,0.3-0.8,0.4-1.2,0.4S-25.1-73-25.5-73.3z"/>
	<path fill="none" stroke="#AFAEAE" stroke-width="1.5" stroke-miterlimit="10" d="M-23-73.3c0.5-0.4,0.9-1,0.9-1.7
		c0-0.7-0.3-1.3-0.9-1.7c-0.4,0.3-0.8,0.4-1.2,0.4c-0.5,0-0.9-0.2-1.3-0.4c-0.5,0.4-0.9,1-0.9,1.7c0,0.7,0.4,1.3,0.9,1.7"/>
	<path fill="#FFFFFF" stroke="#AFAEAE" stroke-width="1.5" stroke-miterlimit="10" d="M-25.5-73.3c0.3,0.3,0.8,0.4,1.2,0.4
		s0.9-0.2,1.2-0.4"/>
	<path fill="none" stroke="#AFAEAE" stroke-width="1.5" stroke-miterlimit="10" d="M-23-76.7c0.5-0.4,0.9-1,0.9-1.7
		c0-1.2-1-2.1-2.1-2.1c-1.2,0-2.1,1-2.1,2.1c0,0.7,0.3,1.3,0.9,1.7"/>
	<path fill="#FFFFFF" stroke="#AFAEAE" stroke-width="1.5" stroke-miterlimit="10" d="M-25.5-76.7c0.4,0.3,0.8,0.4,1.3,0.4
		c0.5,0,0.9-0.2,1.2-0.4"/>
</g>
<line fill="none" stroke="#AFAEAE" stroke-width="1.5" stroke-linecap="round" stroke-linejoin="round" stroke-miterlimit="10" x1="60.3" y1="-48.7" x2="43.6" y2="-48.7"/>
<path fill="none" stroke="#AFAEAE" stroke-width="1.5" stroke-miterlimit="10" d="M60.8-46.6v-4.7c0-0.7,0.7-1.1,1.3-0.7l4,2.3
	c0.6,0.3,0.6,1.1,0,1.5l-4,2.3C61.5-45.5,60.8-45.9,60.8-46.6z"/>
<circle fill="none" stroke="#AFAEAE" stroke-width="1.5" stroke-miterlimit="10" cx="41.4" cy="-48.7" r="2.1"/>
<circle fill="none" stroke="#AFAEAE" stroke-width="1.5" stroke-miterlimit="10" cx="41.4" cy="-37.8" r="2.1"/>
<line fill="none" stroke="#AFAEAE" stroke-width="1.5" stroke-linecap="round" stroke-linejoin="round" stroke-miterlimit="10" x1="58.6" y1="-115.3" x2="43.6" y2="-115.3"/>
<path fill="none" stroke="#AFAEAE" stroke-width="1.5" stroke-miterlimit="10" d="M59.1-113.2v-4.7c0-0.7,0.7-1.1,1.3-0.7l4,2.3
	c0.6,0.3,0.6,1.1,0,1.5l-4,2.3C59.8-112.1,59.1-112.6,59.1-113.2z"/>
<path fill="none" stroke="#AFAEAE" stroke-width="1.5" stroke-miterlimit="10" d="M57.9-105l3.3-3.3c0.5-0.5,1.3-0.3,1.4,0.4
	l1.2,4.5c0.2,0.6-0.4,1.2-1,1l-4.5-1.2C57.6-103.8,57.4-104.6,57.9-105z"/>
<circle fill="none" stroke="#AFAEAE" stroke-width="1.5" stroke-miterlimit="10" cx="41.4" cy="-115.3" r="2.1"/>
<line fill="none" stroke="#AFAEAE" stroke-width="1.5" stroke-linecap="round" stroke-linejoin="round" stroke-miterlimit="10" x1="59.2" y1="-107.4" x2="51.3" y2="-115.3"/>
<line fill="none" stroke="#AFAEAE" stroke-width="1.5" stroke-linecap="round" stroke-linejoin="round" stroke-miterlimit="10" x1="58.6" y1="-92.7" x2="43.6" y2="-92.7"/>
<path fill="none" stroke="#AFAEAE" stroke-width="1.5" stroke-miterlimit="10" d="M59.1-90.6v-4.7c0-0.7,0.7-1.1,1.3-0.7l4,2.3
	c0.6,0.3,0.6,1.1,0,1.5l-4,2.3C59.8-89.5,59.1-90,59.1-90.6z"/>
<path fill="none" stroke="#AFAEAE" stroke-width="1.5" stroke-miterlimit="10" d="M57.9-82.4l3.3-3.3c0.5-0.5,1.3-0.3,1.4,0.4
	l1.2,4.5c0.2,0.6-0.4,1.2-1,1L58.3-81C57.6-81.2,57.4-82,57.9-82.4z"/>
<circle fill="none" stroke="#AFAEAE" stroke-width="1.5" stroke-miterlimit="10" cx="41.4" cy="-92.7" r="2.1"/>
<line fill="none" stroke="#AFAEAE" stroke-width="1.5" stroke-linecap="round" stroke-linejoin="round" stroke-miterlimit="10" x1="59.2" y1="-84.8" x2="51.3" y2="-92.7"/>
<path fill="none" stroke="#AFAEAE" stroke-width="1.5" stroke-miterlimit="10" d="M48.9-85.4h4.7c0.7,0,1.1,0.7,0.7,1.3l-2.3,4
	c-0.3,0.6-1.1,0.6-1.5,0l-2.3-4C47.8-84.6,48.2-85.4,48.9-85.4z"/>
<line fill="none" stroke="#AFAEAE" stroke-width="1.5" stroke-linecap="round" stroke-linejoin="round" stroke-miterlimit="10" x1="51.5" y1="-86" x2="51.5" y2="-92.4"/>
<path fill="none" stroke="#AFAEAE" stroke-width="1.5" stroke-miterlimit="10" d="M59.1-38l3.3-3.3c0.5-0.5,1.3-0.3,1.4,0.4l1.2,4.5
	c0.2,0.6-0.4,1.2-1,1l-4.5-1.2C58.9-36.8,58.7-37.6,59.1-38z"/>
<line fill="none" stroke="#AFAEAE" stroke-width="1.5" stroke-linecap="round" stroke-linejoin="round" stroke-miterlimit="10" x1="60.8" y1="-39.6" x2="52.2" y2="-48.3"/>
<line fill="none" stroke="#AFAEAE" stroke-width="1.5" stroke-linecap="round" stroke-linejoin="round" stroke-miterlimit="10" x1="43.6" y1="-39.6" x2="52.2" y2="-48.3"/>
<line fill="none" stroke="#AFAEAE" stroke-linecap="round" stroke-linejoin="round" stroke-miterlimit="10" x1="-38.1" y1="-51.2" x2="-54.6" y2="-51.2"/>
<path fill="none" stroke="#2196F3" stroke-miterlimit="10" d="M-37.7-49.4v-3.7c0-0.5,0.6-0.9,1-0.6l3.2,1.9c0.5,0.3,0.5,0.9,0,1.2
	l-3.2,1.9C-37.1-48.5-37.7-48.8-37.7-49.4z"/>
<circle fill="none" stroke="#2196F3" stroke-miterlimit="10" cx="-56.7" cy="-51.2" r="2.1"/>
<line fill="none" stroke="#AFAEAE" stroke-width="1.5" stroke-linecap="round" stroke-linejoin="round" stroke-miterlimit="10" x1="24.2" y1="-103.3" x2="9.2" y2="-103.3"/>
<g>
	<path fill="none" stroke="#AFAEAE" stroke-width="1.5" stroke-miterlimit="10" d="M29-102.2l-3,1.7c-0.6,0.3-1.3-0.1-1.3-0.7v2.7
		c0,0.7,0.7,1.1,1.3,0.7l4-2.3c0.6-0.3,0.6-1.1,0-1.5L29-102.2z"/>
	<path fill="none" stroke="#AFAEAE" stroke-width="1.5" stroke-miterlimit="10" d="M29-102.2l1-0.6c0.6-0.3,0.6-1.1,0-1.5l-4-2.3
		c-0.6-0.3-1.3,0.1-1.3,0.7v2.7"/>
	<path fill="none" stroke="#AFAEAE" stroke-width="1.5" stroke-miterlimit="10" d="M24.7-103.2v2c0,0.7,0.7,1.1,1.3,0.7l3-1.7"/>
</g>
<g>
	<path fill="none" stroke="#AFAEAE" stroke-width="1.5" stroke-miterlimit="10" d="M29-73.2l-3,1.7c-0.6,0.3-1.3-0.1-1.3-0.7v2.7
		c0,0.7,0.7,1.1,1.3,0.7l4-2.3c0.6-0.3,0.6-1.1,0-1.5L29-73.2z"/>
	<path fill="none" stroke="#AFAEAE" stroke-width="1.5" stroke-miterlimit="10" d="M29-73.2l1-0.6c0.6-0.3,0.6-1.1,0-1.5l-4-2.3
		c-0.6-0.3-1.3,0.1-1.3,0.7v2.7"/>
	<path fill="none" stroke="#AFAEAE" stroke-width="1.5" stroke-miterlimit="10" d="M24.7-74.2v2c0,0.7,0.7,1.1,1.3,0.7l3-1.7"/>
</g>
<circle fill="none" stroke="#AFAEAE" stroke-width="1.5" stroke-miterlimit="10" cx="7.1" cy="-103.3" r="2.1"/>
<g>
	<path fill="none" stroke="#AFAEAE" stroke-width="1.5" stroke-miterlimit="10" d="M131.9-45.7l1.6-0.9c0.6-0.3,0.6-1.1,0-1.5
		l-4-2.3c-0.6-0.3-1.3,0.1-1.3,0.7v3.4"/>
	<path fill="none" stroke="#AFAEAE" stroke-width="1.5" stroke-miterlimit="10" d="M132.1-42.5l1.4-0.8c0.6-0.3,0.6-1.1,0-1.5
		l-1.6-0.9l-2.4,1.4c-0.6,0.3-1.3-0.1-1.3-0.7v1.8"/>
	<path fill="none" stroke="#AFAEAE" stroke-width="1.5" stroke-miterlimit="10" d="M128.2-46.4v1.3c0,0.7,0.7,1.1,1.3,0.7l2.4-1.4"
		/>
	<path fill="none" stroke="#AFAEAE" stroke-width="1.5" stroke-miterlimit="10" d="M128.2-41.7v3.1c0,0.7,0.7,1.1,1.3,0.7l4-2.3
		c0.6-0.3,0.6-1.1,0-1.5l-1.4-0.8l-2.6,1.5C128.9-40.6,128.2-41.1,128.2-41.7z"/>
	<path fill="none" stroke="#AFAEAE" stroke-width="1.5" stroke-miterlimit="10" d="M128.2-43.3v1.6c0,0.7,0.7,1.1,1.3,0.7l2.6-1.5"
		/>
</g>
<g>
	<path fill="none" stroke="#AFAEAE" stroke-width="1.5" stroke-miterlimit="10" d="M109.2-42.2c-0.5,0.4-0.9,1-0.9,1.7
		c0,1.2,1,2.1,2.1,2.1c1.2,0,2.1-1,2.1-2.1c0-0.7-0.3-1.3-0.9-1.7c-0.4,0.3-0.8,0.4-1.3,0.4S109.5-41.9,109.2-42.2z"/>
	<path fill="none" stroke="#AFAEAE" stroke-width="1.5" stroke-miterlimit="10" d="M111.7-42.2c0.5-0.4,0.9-1,0.9-1.7
		c0-0.7-0.3-1.2-0.8-1.6c-0.4,0.3-0.8,0.5-1.4,0.5c-0.5,0-1-0.2-1.4-0.5c-0.5,0.4-0.8,1-0.8,1.6c0,0.7,0.3,1.3,0.9,1.7"/>
	<path fill="none" stroke="#AFAEAE" stroke-width="1.5" stroke-miterlimit="10" d="M111.8-45.5c0.5-0.4,0.8-1,0.8-1.6
		c0-1.2-1-2.1-2.1-2.1c-1.2,0-2.1,1-2.1,2.1c0,0.7,0.3,1.2,0.8,1.6"/>
</g>
<polyline fill="none" stroke="#AFAEAE" stroke-width="1.5" stroke-linecap="round" stroke-linejoin="round" stroke-miterlimit="10" points="
	112.9,-40.8 121.2,-46.8 112.6,-44.2 "/>
<polyline fill="none" stroke="#AFAEAE" stroke-width="1.5" stroke-linecap="round" stroke-linejoin="round" stroke-miterlimit="10" points="
	127.9,-40.8 119.6,-46.8 128.2,-44.2 "/>
<line fill="none" stroke="#AFAEAE" stroke-width="1.5" stroke-linecap="round" stroke-linejoin="round" stroke-miterlimit="10" x1="127.6" y1="-47" x2="112.6" y2="-47"/>
<g>
	<circle fill="#2196F3" cx="-59" cy="-11.7" r="0.7"/>
	<circle fill="#2196F3" cx="-56.9" cy="-11.7" r="0.7"/>
	<circle fill="#2196F3" cx="-54.7" cy="-11.7" r="0.7"/>
</g>
<g>
	
		<line fill="none" stroke="#AFAEAE" stroke-linecap="round" stroke-linejoin="round" stroke-miterlimit="10" x1="-38.1" y1="-38.8" x2="-54.8" y2="-38.8"/>
	<polyline fill="none" stroke="#AFAEAE" stroke-linecap="round" stroke-linejoin="round" stroke-miterlimit="10" points="
		-55.4,-29.5 -46.5,-38.4 -37.6,-29.5 	"/>
	<circle fill="none" stroke="#2196F3" stroke-miterlimit="10" cx="-56.9" cy="-38.8" r="2.1"/>
	<path fill="none" stroke="#2196F3" stroke-miterlimit="10" d="M-38-36.9v-3.7c0-0.5,0.6-0.9,1-0.6l3.2,1.9c0.5,0.3,0.5,0.9,0,1.2
		l-3.2,1.9C-37.4-36.1-38-36.4-38-36.9z"/>
	<circle fill="none" stroke="#2196F3" stroke-miterlimit="10" cx="-56.9" cy="-28.1" r="2.1"/>
	<path fill="none" stroke="#2196F3" stroke-miterlimit="10" d="M-38.6-28l2.7-2.7c0.4-0.4,1-0.2,1.2,0.3l1,3.7
		c0.1,0.5-0.3,1-0.9,0.9l-3.7-1C-38.8-26.9-38.9-27.6-38.6-28z"/>
</g>
<g>
	
		<line fill="none" stroke="#AFAEAE" stroke-linecap="round" stroke-linejoin="round" stroke-miterlimit="10" x1="-7.9" y1="-38.8" x2="-24.5" y2="-38.8"/>
	
		<line fill="none" stroke="#AFAEAE" stroke-linecap="round" stroke-linejoin="round" stroke-miterlimit="10" x1="-25.1" y1="-29.5" x2="-16.2" y2="-38.4"/>
	<circle fill="none" stroke="#2196F3" stroke-miterlimit="10" cx="-26.6" cy="-38.8" r="2.1"/>
	<path fill="none" stroke="#2196F3" stroke-miterlimit="10" d="M-7.8-36.9v-3.7c0-0.5,0.6-0.9,1-0.6l3.2,1.9c0.5,0.3,0.5,0.9,0,1.2
		l-3.2,1.9C-7.2-36.1-7.8-36.4-7.8-36.9z"/>
	<circle fill="none" stroke="#2196F3" stroke-miterlimit="10" cx="-26.6" cy="-28.1" r="2.1"/>
</g>
<g>
	
		<line fill="none" stroke="#AFAEAE" stroke-linecap="round" stroke-linejoin="round" stroke-miterlimit="10" x1="21.4" y1="-38.8" x2="4.8" y2="-38.8"/>
	
		<line fill="none" stroke="#AFAEAE" stroke-linecap="round" stroke-linejoin="round" stroke-miterlimit="10" x1="13.1" y1="-38.4" x2="22" y2="-29.5"/>
	<circle fill="none" stroke="#2196F3" stroke-miterlimit="10" cx="2.6" cy="-38.8" r="2.1"/>
	<path fill="none" stroke="#2196F3" stroke-miterlimit="10" d="M21.5-36.9v-3.7c0-0.5,0.6-0.9,1-0.6l3.2,1.9c0.5,0.3,0.5,0.9,0,1.2
		l-3.2,1.9C22.1-36.1,21.5-36.4,21.5-36.9z"/>
	<path fill="none" stroke="#2196F3" stroke-miterlimit="10" d="M21-28l2.7-2.7c0.4-0.4,1-0.2,1.2,0.3l1,3.7c0.1,0.5-0.3,1-0.9,0.9
		l-3.7-1C20.8-26.9,20.6-27.6,21-28z"/>
</g>
<g>
	<circle fill="#2196F3" cx="-37.9" cy="-11.7" r="0.7"/>
	<circle fill="#2196F3" cx="-35.7" cy="-11.7" r="0.7"/>
	<circle fill="#2196F3" cx="-33.6" cy="-11.7" r="0.7"/>
</g>
<line fill="none" stroke="#AFAEAE" stroke-linecap="round" stroke-linejoin="round" stroke-miterlimit="10" x1="-38.3" y1="-17.1" x2="-54.8" y2="-17.1"/>
<circle fill="none" stroke="#2196F3" stroke-miterlimit="10" cx="-56.9" cy="-17.1" r="2.1"/>
<path fill="none" stroke="#2196F3" stroke-miterlimit="10" d="M-38-15.2v-3.7c0-0.5,0.6-0.9,1-0.6l3.2,1.9c0.5,0.3,0.5,0.9,0,1.2
	l-3.2,1.9C-37.5-14.4-38-14.7-38-15.2z"/>
<line fill="none" stroke="#AFAEAE" stroke-linecap="round" stroke-linejoin="round" stroke-miterlimit="10" x1="-37.3" y1="-7.7" x2="-46.1" y2="-16.5"/>
<line fill="none" stroke="#AFAEAE" stroke-linecap="round" stroke-linejoin="round" stroke-miterlimit="10" x1="-54.9" y1="-7.7" x2="-45.7" y2="-16.8"/>
<circle fill="none" stroke="#2196F3" stroke-miterlimit="10" cx="-56.9" cy="-6.3" r="2.1"/>
<path fill="none" stroke="#2196F3" stroke-miterlimit="10" d="M-38.3-5.9l2.7-2.7c0.4-0.4,1-0.2,1.2,0.3l1,3.7
	c0.1,0.5-0.3,1-0.9,0.9l-3.7-1C-38.5-4.8-38.7-5.5-38.3-5.9z"/>
<g>
	<circle fill="#2196F3" cx="-28.6" cy="-11.7" r="0.7"/>
	<circle fill="#2196F3" cx="-26.4" cy="-11.7" r="0.7"/>
	<circle fill="#2196F3" cx="-24.3" cy="-11.7" r="0.7"/>
</g>
<line fill="none" stroke="#AFAEAE" stroke-linecap="round" stroke-linejoin="round" stroke-miterlimit="10" x1="-7.8" y1="-17.1" x2="-24.3" y2="-17.1"/>
<circle fill="none" stroke="#2196F3" stroke-miterlimit="10" cx="-26.4" cy="-17.1" r="2.1"/>
<path fill="none" stroke="#2196F3" stroke-miterlimit="10" d="M-7.6-15.2v-3.7c0-0.5,0.6-0.9,1-0.6l3.2,1.9c0.5,0.3,0.5,0.9,0,1.2
	l-3.2,1.9C-7-14.4-7.6-14.7-7.6-15.2z"/>
<line fill="none" stroke="#AFAEAE" stroke-linecap="round" stroke-linejoin="round" stroke-miterlimit="10" x1="-6.9" y1="-7.7" x2="-15.7" y2="-16.5"/>
<line fill="none" stroke="#AFAEAE" stroke-linecap="round" stroke-linejoin="round" stroke-miterlimit="10" x1="-24.4" y1="-7.7" x2="-15.3" y2="-16.8"/>
<circle fill="none" stroke="#2196F3" stroke-miterlimit="10" cx="-26.4" cy="-6.3" r="2.1"/>
<path fill="none" stroke="#2196F3" stroke-miterlimit="10" d="M-7.9-5.9l2.7-2.7C-4.8-9-4.1-8.8-4-8.3l1,3.7c0.1,0.5-0.3,1-0.9,0.9
	l-3.7-1C-8.1-4.8-8.3-5.5-7.9-5.9z"/>
<g>
	<circle fill="#2196F3" cx="-28.6" cy="8.4" r="0.7"/>
	<circle fill="#2196F3" cx="-26.4" cy="8.4" r="0.7"/>
	<circle fill="#2196F3" cx="-24.3" cy="8.4" r="0.7"/>
</g>
<line fill="none" stroke="#AFAEAE" stroke-linecap="round" stroke-linejoin="round" stroke-miterlimit="10" x1="-7.8" y1="3" x2="-24.3" y2="3"/>
<circle fill="none" stroke="#2196F3" stroke-miterlimit="10" cx="-26.4" cy="3.1" r="2.1"/>
<path fill="none" stroke="#2196F3" stroke-miterlimit="10" d="M-7.6,4.9V1.2c0-0.5,0.6-0.9,1-0.6l3.2,1.9c0.5,0.3,0.5,0.9,0,1.2
	l-3.2,1.9C-7,5.8-7.6,5.4-7.6,4.9z"/>
<path fill="none" stroke="#AFAEAE" stroke-linecap="round" stroke-linejoin="round" stroke-miterlimit="10" d="M-15.7,3.6"/>
<line fill="none" stroke="#AFAEAE" stroke-linecap="round" stroke-linejoin="round" stroke-miterlimit="10" x1="-24.4" y1="12.4" x2="-15.3" y2="3.3"/>
<circle fill="none" stroke="#2196F3" stroke-miterlimit="10" cx="-26.4" cy="13.8" r="2.1"/>
<g>
	<circle fill="#2196F3" cx="21.9" cy="-11.7" r="0.7"/>
	<circle fill="#2196F3" cx="24" cy="-11.7" r="0.7"/>
	<circle fill="#2196F3" cx="26.2" cy="-11.7" r="0.7"/>
</g>
<line fill="none" stroke="#AFAEAE" stroke-linecap="round" stroke-linejoin="round" stroke-miterlimit="10" x1="21.5" y1="-17.1" x2="5" y2="-17.1"/>
<circle fill="none" stroke="#2196F3" stroke-miterlimit="10" cx="2.8" cy="-17.1" r="2.1"/>
<path fill="none" stroke="#2196F3" stroke-miterlimit="10" d="M21.7-15.2v-3.7c0-0.5,0.6-0.9,1-0.6l3.2,1.9c0.5,0.3,0.5,0.9,0,1.2
	l-3.2,1.9C22.3-14.4,21.7-14.7,21.7-15.2z"/>
<line fill="none" stroke="#AFAEAE" stroke-linecap="round" stroke-linejoin="round" stroke-miterlimit="10" x1="22.4" y1="-7.7" x2="13.6" y2="-16.5"/>
<line fill="none" stroke="#AFAEAE" stroke-linecap="round" stroke-linejoin="round" stroke-miterlimit="10" x1="4.9" y1="-7.7" x2="14" y2="-16.8"/>
<circle fill="none" stroke="#2196F3" stroke-miterlimit="10" cx="2.8" cy="-6.3" r="2.1"/>
<path fill="none" stroke="#2196F3" stroke-miterlimit="10" d="M21.4-5.9l2.7-2.7c0.4-0.4,1-0.2,1.2,0.3l1,3.7c0.1,0.5-0.3,1-0.9,0.9
	l-3.7-1C21.2-4.8,21-5.5,21.4-5.9z"/>
<g>
	<circle fill="#2196F3" cx="21.9" cy="8.4" r="0.7"/>
	<circle fill="#2196F3" cx="24" cy="8.4" r="0.7"/>
	<circle fill="#2196F3" cx="26.2" cy="8.4" r="0.7"/>
</g>
<line fill="none" stroke="#AFAEAE" stroke-linecap="round" stroke-linejoin="round" stroke-miterlimit="10" x1="21.5" y1="3" x2="5" y2="3"/>
<circle fill="none" stroke="#2196F3" stroke-miterlimit="10" cx="2.8" cy="3.1" r="2.1"/>
<path fill="none" stroke="#2196F3" stroke-miterlimit="10" d="M21.7,4.9V1.2c0-0.5,0.6-0.9,1-0.6l3.2,1.9c0.5,0.3,0.5,0.9,0,1.2
	l-3.2,1.9C22.3,5.8,21.7,5.4,21.7,4.9z"/>
<line fill="none" stroke="#AFAEAE" stroke-linecap="round" stroke-linejoin="round" stroke-miterlimit="10" x1="22.4" y1="12.4" x2="13.6" y2="3.6"/>
<path fill="none" stroke="#AFAEAE" stroke-linecap="round" stroke-linejoin="round" stroke-miterlimit="10" d="M14,3.3"/>
<path fill="none" stroke="#2196F3" stroke-miterlimit="10" d="M21.4,14.2l2.7-2.7c0.4-0.4,1-0.2,1.2,0.3l1,3.7
	c0.1,0.5-0.3,1-0.9,0.9l-3.7-1C21.2,15.3,21,14.6,21.4,14.2z"/>
</svg>
