<svg width="200" height="200" viewBox="0 0 200 200" fill="none" xmlns="http://www.w3.org/2000/svg">
<path d="M55.5061 24.6692H24.6689V55.5063H55.5061V24.6692Z" fill="#4A4A4A"/>
<path d="M55.5061 144.494H24.6689V175.331H55.5061V144.494Z" fill="#4A4A4A"/>
<path d="M0 106.167V119.824V128.634V200H80.1764V156.828H98.6785V176.652V177.974V199.119H121.145V180.617H138.766V199.119H161.233V177.974H177.533V199.119H200V176.652H178.855V155.507H156.388V176.652H141.628V133.04H121.145V114.538H142.291V135.683H164.757V121.586H177.533V130.837V142.732V153.304H200V142.732V130.837V120.265H185.903V100.441H200V80.1764V77.974V0H119.824V0.147732H98.6785V24.6693H80.1764V0H0V70.925V80.1764V93.3919H14.0967V106.167H0ZM66.079 185.903H14.0967V133.921H66.079V185.903ZM99.9997 135.683H119.165V155.507H99.9997V135.683ZM99.9997 93.3919H117.84V113.216H99.9997V93.3919ZM177.533 99.1191H165.416V92.0707H121.145V80.1764H177.532V99.1191H177.533ZM133.92 14.0967H185.903V66.079H133.92V14.0967ZM119.824 70.925H99.9997V27.0201H119.824V70.925ZM98.6785 92.0707H80.2327V72.2468H98.6785V92.0707ZM14.0967 14.0967H66.079V66.079H14.0967V14.0967ZM57.7658 80.1764V93.3919H77.5334V114.537H98.6785V134.361H80.1764V119.824H22.4669V114.537H35.2425H36.5643H57.7094V92.0701H36.5637H35.2419H22.4669V80.1757H57.7658V80.1764Z" fill="#4A4A4A"/>
<path d="M175.33 24.6692H144.493V55.5063H175.33V24.6692Z" fill="#4A4A4A"/>
</svg>
